<?xml version="1.0" encoding="UTF-8" standalone="no"?>
<!DOCTYPE svg PUBLIC "-//W3C//DTD SVG 1.1//EN"
 "http://www.w3.org/Graphics/SVG/1.1/DTD/svg11.dtd">
<!-- Generated by graphviz version 2.43.0 (0)
 -->
<!-- Title: SmartTraffic Pages: 1 -->
<svg width="2340pt" height="485pt"
 viewBox="0.00 0.00 2339.53 485.25" xmlns="http://www.w3.org/2000/svg" xmlns:xlink="http://www.w3.org/1999/xlink">
<g id="graph0" class="graph" transform="scale(1 1) rotate(0) translate(36 449.25)">
<title>SmartTraffic</title>
<polygon fill="#fafaf9" stroke="transparent" points="-36,36 -36,-449.25 2303.53,-449.25 2303.53,36 -36,36"/>
<g id="clust1" class="cluster">
<title>cluster_consts</title>
<path fill="#f5f3ff" stroke="#ddd6fe" d="M893.53,-74C893.53,-74 1195.53,-74 1195.53,-74 1201.53,-74 1207.53,-80 1207.53,-86 1207.53,-86 1207.53,-141 1207.53,-141 1207.53,-147 1201.53,-153 1195.53,-153 1195.53,-153 893.53,-153 893.53,-153 887.53,-153 881.53,-147 881.53,-141 881.53,-141 881.53,-86 881.53,-86 881.53,-80 887.53,-74 893.53,-74"/>
<text text-anchor="start" x="966.53" y="-142" font-family="Helvetica,sans-Serif" font-weight="bold" font-size="10.00">Class constants (whitelists)</text>
</g>
<g id="clust2" class="cluster">
<title>cluster_nav</title>
<path fill="#eef2ff" stroke="#c7d2fe" d="M1423.53,-180.25C1423.53,-180.25 1885.53,-180.25 1885.53,-180.25 1891.53,-180.25 1897.53,-186.25 1897.53,-192.25 1897.53,-192.25 1897.53,-247.25 1897.53,-247.25 1897.53,-253.25 1891.53,-259.25 1885.53,-259.25 1885.53,-259.25 1423.53,-259.25 1423.53,-259.25 1417.53,-259.25 1411.53,-253.25 1411.53,-247.25 1411.53,-247.25 1411.53,-192.25 1411.53,-192.25 1411.53,-186.25 1417.53,-180.25 1423.53,-180.25"/>
<text text-anchor="start" x="1597.03" y="-248.25" font-family="Helvetica,sans-Serif" font-weight="bold" font-size="10.00">Navigation methods</text>
</g>
<g id="clust3" class="cluster">
<title>cluster_state</title>
<path fill="#fef2f2" stroke="#fecaca" d="M1917.53,-180.25C1917.53,-180.25 2247.53,-180.25 2247.53,-180.25 2253.53,-180.25 2259.53,-186.25 2259.53,-192.25 2259.53,-192.25 2259.53,-247.25 2259.53,-247.25 2259.53,-253.25 2253.53,-259.25 2247.53,-259.25 2247.53,-259.25 1917.53,-259.25 1917.53,-259.25 1911.53,-259.25 1905.53,-253.25 1905.53,-247.25 1905.53,-247.25 1905.53,-192.25 1905.53,-192.25 1905.53,-186.25 1911.53,-180.25 1917.53,-180.25"/>
<text text-anchor="start" x="2032.53" y="-248.25" font-family="Helvetica,sans-Serif" font-weight="bold" font-size="10.00">Public properties</text>
</g>
<g id="clust4" class="cluster">
<title>cluster_methods</title>
<path fill="#fffbeb" stroke="#fde68a" d="M31.53,-74C31.53,-74 506.53,-74 506.53,-74 512.53,-74 518.53,-80 518.53,-86 518.53,-86 518.53,-247.25 518.53,-247.25 518.53,-253.25 512.53,-259.25 506.53,-259.25 506.53,-259.25 31.53,-259.25 31.53,-259.25 25.53,-259.25 19.53,-253.25 19.53,-247.25 19.53,-247.25 19.53,-86 19.53,-86 19.53,-80 25.53,-74 31.53,-74"/>
<text text-anchor="start" x="244.53" y="-248.25" font-family="Helvetica,sans-Serif" font-weight="bold" font-size="10.00">Methods</text>
</g>
<!-- Page -->
<g id="node1" class="node">
<title>Page</title>
<path fill="#1e293b" stroke="#1e293b" stroke-width="1.2" d="M1368.53,-413.25C1368.53,-413.25 1162.53,-413.25 1162.53,-413.25 1156.53,-413.25 1150.53,-407.25 1150.53,-401.25 1150.53,-401.25 1150.53,-377.25 1150.53,-377.25 1150.53,-371.25 1156.53,-365.25 1162.53,-365.25 1162.53,-365.25 1368.53,-365.25 1368.53,-365.25 1374.53,-365.25 1380.53,-371.25 1380.53,-377.25 1380.53,-377.25 1380.53,-401.25 1380.53,-401.25 1380.53,-407.25 1374.53,-413.25 1368.53,-413.25"/>
<text text-anchor="start" x="1220.53" y="-399.85" font-family="Helvetica,sans-Serif" font-weight="bold" font-size="13.00" fill="white">SmartTraffic</text>
<text text-anchor="start" x="1235.03" y="-390.05" font-family="Helvetica,sans-Serif" font-size="9.00" fill="#78716c">extends Page</text>
<text text-anchor="start" x="1170.53" y="-381.05" font-family="Helvetica,sans-Serif" font-size="9.00" fill="#cbd5e1">uses HasPageShield, InteractsWithActions</text>
<text text-anchor="start" x="1189.03" y="-372.05" font-family="Helvetica,sans-Serif" font-size="9.00" fill="#78716c">view: filament.pages.smart&#45;traffic</text>
</g>
<!-- Constants -->
<g id="node2" class="node">
<title>Constants</title>
<path fill="#ede9fe" stroke="#a78bfa" stroke-width="1.2" d="M1148.03,-228.25C1148.03,-228.25 1093.03,-228.25 1093.03,-228.25 1087.03,-228.25 1081.03,-222.25 1081.03,-216.25 1081.03,-216.25 1081.03,-204.25 1081.03,-204.25 1081.03,-198.25 1087.03,-192.25 1093.03,-192.25 1093.03,-192.25 1148.03,-192.25 1148.03,-192.25 1154.03,-192.25 1160.03,-198.25 1160.03,-204.25 1160.03,-204.25 1160.03,-216.25 1160.03,-216.25 1160.03,-222.25 1154.03,-228.25 1148.03,-228.25"/>
<text text-anchor="start" x="1089.03" y="-208.45" font-family="Helvetica,sans-Serif" font-weight="bold" font-size="11.00">Constants</text>
</g>
<!-- Page&#45;&gt;Constants -->
<g id="edge1" class="edge">
<title>Page&#45;&gt;Constants</title>
<path fill="none" stroke="#78716c" stroke-width="1.1" d="M1246.57,-365.11C1218.71,-331.09 1167,-267.97 1139.26,-234.11"/>
<polygon fill="#78716c" stroke="#78716c" stroke-width="1.1" points="1141.03,-232.41 1134.7,-228.54 1137.24,-235.51 1141.03,-232.41"/>
</g>
<!-- Nav -->
<g id="node3" class="node">
<title>Nav</title>
<path fill="#e0e7ff" stroke="#6366f1" stroke-width="1.2" d="M1624.03,-324.25C1624.03,-324.25 1515.03,-324.25 1515.03,-324.25 1509.03,-324.25 1503.03,-318.25 1503.03,-312.25 1503.03,-312.25 1503.03,-300.25 1503.03,-300.25 1503.03,-294.25 1509.03,-288.25 1515.03,-288.25 1515.03,-288.25 1624.03,-288.25 1624.03,-288.25 1630.03,-288.25 1636.03,-294.25 1636.03,-300.25 1636.03,-300.25 1636.03,-312.25 1636.03,-312.25 1636.03,-318.25 1630.03,-324.25 1624.03,-324.25"/>
<text text-anchor="start" x="1511.03" y="-304.45" font-family="Helvetica,sans-Serif" font-weight="bold" font-size="11.00">Navigation (static)</text>
</g>
<!-- Page&#45;&gt;Nav -->
<g id="edge2" class="edge">
<title>Page&#45;&gt;Nav</title>
<path fill="none" stroke="#78716c" stroke-width="1.1" d="M1352.24,-365.15C1398.55,-352.81 1454.84,-337.81 1498.53,-326.17"/>
<polygon fill="#78716c" stroke="#78716c" stroke-width="1.1" points="1499.29,-328.5 1505.42,-324.33 1498.03,-323.77 1499.29,-328.5"/>
</g>
<!-- State -->
<g id="node4" class="node">
<title>State</title>
<path fill="#fee2e2" stroke="#ef4444" stroke-width="1.2" d="M1994.53,-324.25C1994.53,-324.25 1964.53,-324.25 1964.53,-324.25 1958.53,-324.25 1952.53,-318.25 1952.53,-312.25 1952.53,-312.25 1952.53,-300.25 1952.53,-300.25 1952.53,-294.25 1958.53,-288.25 1964.53,-288.25 1964.53,-288.25 1994.53,-288.25 1994.53,-288.25 2000.53,-288.25 2006.53,-294.25 2006.53,-300.25 2006.53,-300.25 2006.53,-312.25 2006.53,-312.25 2006.53,-318.25 2000.53,-324.25 1994.53,-324.25"/>
<text text-anchor="start" x="1962.53" y="-304.45" font-family="Helvetica,sans-Serif" font-weight="bold" font-size="11.00">State</text>
</g>
<!-- Page&#45;&gt;State -->
<g id="edge3" class="edge">
<title>Page&#45;&gt;State</title>
<path fill="none" stroke="#78716c" stroke-width="1.1" d="M1380.64,-375.19C1546.69,-356.35 1844.54,-322.56 1945.21,-311.14"/>
<polygon fill="#78716c" stroke="#78716c" stroke-width="1.1" points="1945.71,-313.55 1952.39,-310.33 1945.16,-308.68 1945.71,-313.55"/>
</g>
<!-- Methods -->
<g id="node5" class="node">
<title>Methods</title>
<path fill="#fef3c7" stroke="#f59e0b" stroke-width="1.2" d="M285.53,-324.25C285.53,-324.25 175.53,-324.25 175.53,-324.25 169.53,-324.25 163.53,-318.25 163.53,-312.25 163.53,-312.25 163.53,-300.25 163.53,-300.25 163.53,-294.25 169.53,-288.25 175.53,-288.25 175.53,-288.25 285.53,-288.25 285.53,-288.25 291.53,-288.25 297.53,-294.25 297.53,-300.25 297.53,-300.25 297.53,-312.25 297.53,-312.25 297.53,-318.25 291.53,-324.25 285.53,-324.25"/>
<text text-anchor="start" x="171.53" y="-304.45" font-family="Helvetica,sans-Serif" font-weight="bold" font-size="11.00">Lifecycle &amp; Actions</text>
</g>
<!-- Page&#45;&gt;Methods -->
<g id="edge4" class="edge">
<title>Page&#45;&gt;Methods</title>
<path fill="none" stroke="#78716c" stroke-width="1.1" d="M1150.31,-379.23C936.22,-362.48 482.66,-326.98 304.54,-313.04"/>
<polygon fill="#78716c" stroke="#78716c" stroke-width="1.1" points="304.72,-310.6 297.55,-312.5 304.34,-315.48 304.72,-310.6"/>
</g>
<!-- directions -->
<g id="node6" class="node">
<title>directions</title>
<path fill="white" stroke="#c4b5fd" stroke-width="1.2" d="M1183.53,-122C1183.53,-122 1057.53,-122 1057.53,-122 1051.53,-122 1045.53,-116 1045.53,-110 1045.53,-110 1045.53,-98 1045.53,-98 1045.53,-92 1051.53,-86 1057.53,-86 1057.53,-86 1183.53,-86 1183.53,-86 1189.53,-86 1195.53,-92 1195.53,-98 1195.53,-98 1195.53,-110 1195.53,-110 1195.53,-116 1189.53,-122 1183.53,-122"/>
<text text-anchor="start" x="1083.03" y="-106.2" font-family="Helvetica,sans-Serif" font-weight="bold" font-size="11.00">DIRECTIONS</text>
<text text-anchor="start" x="1053.53" y="-96.8" font-family="Helvetica,sans-Serif" font-size="9.00" fill="#78716c">[&#39;north&#39;, &#39;south&#39;, &#39;east&#39;, &#39;west&#39;]</text>
</g>
<!-- Constants&#45;&gt;directions -->
<g id="edge5" class="edge">
<title>Constants&#45;&gt;directions</title>
<path fill="none" stroke="#78716c" stroke-width="1.1" d="M1120.53,-192.04C1120.53,-174.98 1120.53,-148.71 1120.53,-129.48"/>
<polygon fill="#78716c" stroke="#78716c" stroke-width="1.1" points="1122.98,-129.24 1120.53,-122.24 1118.08,-129.24 1122.98,-129.24"/>
</g>
<!-- colors -->
<g id="node7" class="node">
<title>colors</title>
<path fill="white" stroke="#c4b5fd" stroke-width="1.2" d="M1001.03,-122C1001.03,-122 906.03,-122 906.03,-122 900.03,-122 894.03,-116 894.03,-110 894.03,-110 894.03,-98 894.03,-98 894.03,-92 900.03,-86 906.03,-86 906.03,-86 1001.03,-86 1001.03,-86 1007.03,-86 1013.03,-92 1013.03,-98 1013.03,-98 1013.03,-110 1013.03,-110 1013.03,-116 1007.03,-122 1001.03,-122"/>
<text text-anchor="start" x="928.53" y="-106.2" font-family="Helvetica,sans-Serif" font-weight="bold" font-size="11.00">COLORS</text>
<text text-anchor="start" x="902.03" y="-96.8" font-family="Helvetica,sans-Serif" font-size="9.00" fill="#78716c">[&#39;red&#39;, &#39;yellow&#39;, &#39;green&#39;]</text>
</g>
<!-- Constants&#45;&gt;colors -->
<g id="edge6" class="edge">
<title>Constants&#45;&gt;colors</title>
<path fill="none" stroke="#78716c" stroke-width="1.1" d="M1080.87,-203.23C1055.97,-197.94 1024.2,-188.27 1000.53,-171 985.35,-159.93 973.22,-142.45 965.08,-128.26"/>
<polygon fill="#78716c" stroke="#78716c" stroke-width="1.1" points="967.16,-126.95 961.63,-122 962.87,-129.32 967.16,-126.95"/>
</g>
<!-- navIcon -->
<g id="node8" class="node">
<title>navIcon</title>
<path fill="white" stroke="#a5b4fc" stroke-width="1.2" d="M1541.03,-228.25C1541.03,-228.25 1436.03,-228.25 1436.03,-228.25 1430.03,-228.25 1424.03,-222.25 1424.03,-216.25 1424.03,-216.25 1424.03,-204.25 1424.03,-204.25 1424.03,-198.25 1430.03,-192.25 1436.03,-192.25 1436.03,-192.25 1541.03,-192.25 1541.03,-192.25 1547.03,-192.25 1553.03,-198.25 1553.03,-204.25 1553.03,-204.25 1553.03,-216.25 1553.03,-216.25 1553.03,-222.25 1547.03,-228.25 1541.03,-228.25"/>
<text text-anchor="start" x="1432.03" y="-212.45" font-family="Helvetica,sans-Serif" font-weight="bold" font-size="11.00">getNavigationIcon</text>
<text text-anchor="start" x="1452.53" y="-203.05" font-family="Helvetica,sans-Serif" font-size="9.00" fill="#78716c">heroicon&#45;o&#45;stop</text>
</g>
<!-- Nav&#45;&gt;navIcon -->
<g id="edge7" class="edge">
<title>Nav&#45;&gt;navIcon</title>
<path fill="none" stroke="#78716c" stroke-width="1.1" d="M1554.67,-288.01C1541.54,-272.77 1522.3,-250.44 1507.95,-233.79"/>
<polygon fill="#78716c" stroke="#78716c" stroke-width="1.1" points="1509.72,-232.09 1503.29,-228.38 1506,-235.28 1509.72,-232.09"/>
</g>
<!-- navLabel -->
<g id="node9" class="node">
<title>navLabel</title>
<path fill="white" stroke="#a5b4fc" stroke-width="1.2" d="M1873.03,-228.25C1873.03,-228.25 1760.03,-228.25 1760.03,-228.25 1754.03,-228.25 1748.03,-222.25 1748.03,-216.25 1748.03,-216.25 1748.03,-204.25 1748.03,-204.25 1748.03,-198.25 1754.03,-192.25 1760.03,-192.25 1760.03,-192.25 1873.03,-192.25 1873.03,-192.25 1879.03,-192.25 1885.03,-198.25 1885.03,-204.25 1885.03,-204.25 1885.03,-216.25 1885.03,-216.25 1885.03,-222.25 1879.03,-228.25 1873.03,-228.25"/>
<text text-anchor="start" x="1756.03" y="-212.45" font-family="Helvetica,sans-Serif" font-weight="bold" font-size="11.00">getNavigationLabel</text>
<text text-anchor="start" x="1784.53" y="-203.05" font-family="Helvetica,sans-Serif" font-size="9.00" fill="#78716c">&#39;Smart Traffic&#39;</text>
</g>
<!-- Nav&#45;&gt;navLabel -->
<g id="edge8" class="edge">
<title>Nav&#45;&gt;navLabel</title>
<path fill="none" stroke="#78716c" stroke-width="1.1" d="M1636.16,-290.14C1665.9,-282.43 1701.04,-271.97 1731.53,-259.25 1749.46,-251.77 1768.37,-241.36 1783.79,-232.15"/>
<polygon fill="#78716c" stroke="#78716c" stroke-width="1.1" points="1785.46,-234.01 1790.18,-228.29 1782.92,-229.82 1785.46,-234.01"/>
</g>
<!-- navSort -->
<g id="node10" class="node">
<title>navSort</title>
<path fill="white" stroke="#a5b4fc" stroke-width="1.2" d="M1703.53,-228.25C1703.53,-228.25 1597.53,-228.25 1597.53,-228.25 1591.53,-228.25 1585.53,-222.25 1585.53,-216.25 1585.53,-216.25 1585.53,-204.25 1585.53,-204.25 1585.53,-198.25 1591.53,-192.25 1597.53,-192.25 1597.53,-192.25 1703.53,-192.25 1703.53,-192.25 1709.53,-192.25 1715.53,-198.25 1715.53,-204.25 1715.53,-204.25 1715.53,-216.25 1715.53,-216.25 1715.53,-222.25 1709.53,-228.25 1703.53,-228.25"/>
<text text-anchor="start" x="1593.53" y="-212.45" font-family="Helvetica,sans-Serif" font-weight="bold" font-size="11.00">getNavigationSort</text>
<text text-anchor="start" x="1647.03" y="-203.05" font-family="Helvetica,sans-Serif" font-size="9.00" fill="#78716c">5</text>
</g>
<!-- Nav&#45;&gt;navSort -->
<g id="edge9" class="edge">
<title>Nav&#45;&gt;navSort</title>
<path fill="none" stroke="#78716c" stroke-width="1.1" d="M1584.38,-288.01C1597.52,-272.77 1616.76,-250.44 1631.1,-233.79"/>
<polygon fill="#78716c" stroke="#78716c" stroke-width="1.1" points="1633.05,-235.28 1635.77,-228.38 1629.34,-232.09 1633.05,-235.28"/>
</g>
<!-- mode -->
<g id="node11" class="node">
<title>mode</title>
<path fill="white" stroke="#fca5a5" stroke-width="1.2" d="M2029.53,-228.25C2029.53,-228.25 1929.53,-228.25 1929.53,-228.25 1923.53,-228.25 1917.53,-222.25 1917.53,-216.25 1917.53,-216.25 1917.53,-204.25 1917.53,-204.25 1917.53,-198.25 1923.53,-192.25 1929.53,-192.25 1929.53,-192.25 2029.53,-192.25 2029.53,-192.25 2035.53,-192.25 2041.53,-198.25 2041.53,-204.25 2041.53,-204.25 2041.53,-216.25 2041.53,-216.25 2041.53,-222.25 2035.53,-228.25 2029.53,-228.25"/>
<text text-anchor="start" x="1962.53" y="-212.45" font-family="Helvetica,sans-Serif" font-weight="bold" font-size="11.00">mode</text>
<text text-anchor="start" x="1925.53" y="-203.05" font-family="Helvetica,sans-Serif" font-size="9.00" fill="#78716c">string · &#39;manual&#39; | &#39;auto&#39;</text>
</g>
<!-- State&#45;&gt;mode -->
<g id="edge10" class="edge">
<title>State&#45;&gt;mode</title>
<path fill="none" stroke="#78716c" stroke-width="1.1" d="M1979.53,-288.01C1979.53,-273.3 1979.53,-251.99 1979.53,-235.55"/>
<polygon fill="#78716c" stroke="#78716c" stroke-width="1.1" points="1981.98,-235.38 1979.53,-228.38 1977.08,-235.38 1981.98,-235.38"/>
</g>
<!-- lights -->
<g id="node12" class="node">
<title>lights</title>
<path fill="white" stroke="#fca5a5" stroke-width="1.2" d="M2235.53,-228.25C2235.53,-228.25 2085.53,-228.25 2085.53,-228.25 2079.53,-228.25 2073.53,-222.25 2073.53,-216.25 2073.53,-216.25 2073.53,-204.25 2073.53,-204.25 2073.53,-198.25 2079.53,-192.25 2085.53,-192.25 2085.53,-192.25 2235.53,-192.25 2235.53,-192.25 2241.53,-192.25 2247.53,-198.25 2247.53,-204.25 2247.53,-204.25 2247.53,-216.25 2247.53,-216.25 2247.53,-222.25 2241.53,-228.25 2235.53,-228.25"/>
<text text-anchor="start" x="2143.03" y="-212.45" font-family="Helvetica,sans-Serif" font-weight="bold" font-size="11.00">lights</text>
<text text-anchor="start" x="2081.53" y="-203.05" font-family="Helvetica,sans-Serif" font-size="9.00" fill="#78716c">array · direction → color (4 entries)</text>
</g>
<!-- State&#45;&gt;lights -->
<g id="edge11" class="edge">
<title>State&#45;&gt;lights</title>
<path fill="none" stroke="#78716c" stroke-width="1.1" d="M2006.63,-291.18C2037.08,-275.36 2086.78,-249.55 2121.43,-231.56"/>
<polygon fill="#78716c" stroke="#78716c" stroke-width="1.1" points="2122.63,-233.69 2127.72,-228.29 2120.38,-229.34 2122.63,-233.69"/>
</g>
<!-- mount -->
<g id="node13" class="node">
<title>mount</title>
<path fill="white" stroke="#fcd34d" stroke-width="1.2" d="M91.03,-228.25C91.03,-228.25 44.03,-228.25 44.03,-228.25 38.03,-228.25 32.03,-222.25 32.03,-216.25 32.03,-216.25 32.03,-204.25 32.03,-204.25 32.03,-198.25 38.03,-192.25 44.03,-192.25 44.03,-192.25 91.03,-192.25 91.03,-192.25 97.03,-192.25 103.03,-198.25 103.03,-204.25 103.03,-204.25 103.03,-216.25 103.03,-216.25 103.03,-222.25 97.03,-228.25 91.03,-228.25"/>
<text text-anchor="start" x="42.53" y="-212.45" font-family="Helvetica,sans-Serif" font-weight="bold" font-size="11.00">mount()</text>
<text text-anchor="start" x="40.03" y="-203.05" font-family="Helvetica,sans-Serif" font-size="9.00" fill="#78716c">Livewire init</text>
</g>
<!-- Methods&#45;&gt;mount -->
<g id="edge12" class="edge">
<title>Methods&#45;&gt;mount</title>
<path fill="none" stroke="#78716c" stroke-width="1.1" d="M177.83,-288.16C158.41,-280.71 136.73,-270.98 118.53,-259.25 107.52,-252.16 96.76,-242.54 87.97,-233.78"/>
<polygon fill="#78716c" stroke="#78716c" stroke-width="1.1" points="89.42,-231.76 82.77,-228.47 85.92,-235.18 89.42,-231.76"/>
</g>
<!-- pollData -->
<g id="node14" class="node">
<title>pollData</title>
<path fill="white" stroke="#fcd34d" stroke-width="1.2" d="M249.03,-122C249.03,-122 100.03,-122 100.03,-122 94.03,-122 88.03,-116 88.03,-110 88.03,-110 88.03,-98 88.03,-98 88.03,-92 94.03,-86 100.03,-86 100.03,-86 249.03,-86 249.03,-86 255.03,-86 261.03,-92 261.03,-98 261.03,-98 261.03,-110 261.03,-110 261.03,-116 255.03,-122 249.03,-122"/>
<text text-anchor="start" x="143.03" y="-106.2" font-family="Helvetica,sans-Serif" font-weight="bold" font-size="11.00">pollData()</text>
<text text-anchor="start" x="96.03" y="-96.8" font-family="Helvetica,sans-Serif" font-size="9.00" fill="#78716c">pull mode + 4 lights from Firebase</text>
</g>
<!-- Methods&#45;&gt;pollData -->
<g id="edge13" class="edge">
<title>Methods&#45;&gt;pollData</title>
<path fill="none" stroke="#78716c" stroke-width="1.1" d="M163.31,-299.96C107.34,-293.99 33.92,-281.99 15.53,-259.25 -6.55,-231.95 -3.25,-209.92 15.53,-180.25 32.61,-153.26 62.28,-135.77 91.39,-124.51"/>
<polygon fill="#78716c" stroke="#78716c" stroke-width="1.1" points="92.27,-126.8 97.98,-122.06 90.57,-122.2 92.27,-126.8"/>
</g>
<!-- toggleMode -->
<g id="node15" class="node">
<title>toggleMode</title>
<path fill="white" stroke="#fcd34d" stroke-width="1.2" d="M314.03,-228.25C314.03,-228.25 147.03,-228.25 147.03,-228.25 141.03,-228.25 135.03,-222.25 135.03,-216.25 135.03,-216.25 135.03,-204.25 135.03,-204.25 135.03,-198.25 141.03,-192.25 147.03,-192.25 147.03,-192.25 314.03,-192.25 314.03,-192.25 320.03,-192.25 326.03,-198.25 326.03,-204.25 326.03,-204.25 326.03,-216.25 326.03,-216.25 326.03,-222.25 320.03,-228.25 314.03,-228.25"/>
<text text-anchor="start" x="188.53" y="-212.45" font-family="Helvetica,sans-Serif" font-weight="bold" font-size="11.00">toggleMode()</text>
<text text-anchor="start" x="143.03" y="-203.05" font-family="Helvetica,sans-Serif" font-size="9.00" fill="#78716c">manual ⇄ auto · re&#45;polls before &amp; after</text>
</g>
<!-- Methods&#45;&gt;toggleMode -->
<g id="edge14" class="edge">
<title>Methods&#45;&gt;toggleMode</title>
<path fill="none" stroke="#78716c" stroke-width="1.1" d="M230.53,-288.01C230.53,-273.3 230.53,-251.99 230.53,-235.55"/>
<polygon fill="#78716c" stroke="#78716c" stroke-width="1.1" points="232.98,-235.38 230.53,-228.38 228.08,-235.38 232.98,-235.38"/>
</g>
<!-- setLight -->
<g id="node16" class="node">
<title>setLight</title>
<path fill="white" stroke="#fcd34d" stroke-width="1.2" d="M495.03,-228.25C495.03,-228.25 370.03,-228.25 370.03,-228.25 364.03,-228.25 358.03,-222.25 358.03,-216.25 358.03,-216.25 358.03,-204.25 358.03,-204.25 358.03,-198.25 364.03,-192.25 370.03,-192.25 370.03,-192.25 495.03,-192.25 495.03,-192.25 501.03,-192.25 507.03,-198.25 507.03,-204.25 507.03,-204.25 507.03,-216.25 507.03,-216.25 507.03,-222.25 501.03,-228.25 495.03,-228.25"/>
<text text-anchor="start" x="367.53" y="-212.45" font-family="Helvetica,sans-Serif" font-weight="bold" font-size="11.00">setLight($dir, $color)</text>
<text text-anchor="start" x="366.03" y="-203.05" font-family="Helvetica,sans-Serif" font-size="9.00" fill="#78716c">guarded by mode + whitelist</text>
</g>
<!-- Methods&#45;&gt;setLight -->
<g id="edge15" class="edge">
<title>Methods&#45;&gt;setLight</title>
<path fill="none" stroke="#78716c" stroke-width="1.1" d="M274.43,-288.15C295,-279.86 319.72,-269.49 341.53,-259.25 359.51,-250.8 379.05,-240.63 395.39,-231.83"/>
<polygon fill="#78716c" stroke="#78716c" stroke-width="1.1" points="396.73,-233.9 401.72,-228.41 394.4,-229.59 396.73,-233.9"/>
</g>
<!-- mount&#45;&gt;pollData -->
<g id="edge26" class="edge">
<title>mount&#45;&gt;pollData</title>
<path fill="none" stroke="#9ca3af" stroke-width="1.1" stroke-dasharray="5,2" d="M85.2,-192.04C103.4,-174.3 131.83,-146.6 151.72,-127.22"/>
<polygon fill="#9ca3af" stroke="#9ca3af" stroke-width="1.1" points="153.53,-128.88 156.83,-122.24 150.11,-125.37 153.53,-128.88"/>
<text text-anchor="middle" x="126.53" y="-163.8" font-family="Helvetica,sans-Serif" font-size="9.00">then</text>
</g>
<!-- fbGet -->
<g id="node18" class="node">
<title>fbGet</title>
<path fill="#f0fdf4" stroke="#86efac" stroke-width="1.2" d="M1001.03,-36C1001.03,-36 894.03,-36 894.03,-36 888.03,-36 882.03,-30 882.03,-24 882.03,-24 882.03,-12 882.03,-12 882.03,-6 888.03,0 894.03,0 894.03,0 1001.03,0 1001.03,0 1007.03,0 1013.03,-6 1013.03,-12 1013.03,-12 1013.03,-24 1013.03,-24 1013.03,-30 1007.03,-36 1001.03,-36"/>
<text text-anchor="start" x="890.03" y="-16.2" font-family="Helvetica,sans-Serif" font-weight="bold" font-size="11.00">get(&#39;smart&#45;traffic&#39;)</text>
</g>
<!-- pollData&#45;&gt;fbGet -->
<g id="edge19" class="edge">
<title>pollData&#45;&gt;fbGet</title>
<path fill="none" stroke="#78716c" stroke-width="1.1" d="M261.32,-93.57C414.92,-76.88 731.84,-42.44 874.78,-26.91"/>
<polygon fill="#78716c" stroke="#78716c" stroke-width="1.1" points="875.18,-29.33 881.87,-26.13 874.65,-24.46 875.18,-29.33"/>
<text text-anchor="middle" x="595.03" y="-58.8" font-family="Helvetica,sans-Serif" font-size="9.00">read</text>
</g>
<!-- toggleMode&#45;&gt;pollData -->
<g id="edge27" class="edge">
<title>toggleMode&#45;&gt;pollData</title>
<path fill="none" stroke="#9ca3af" stroke-width="1.1" stroke-dasharray="5,2" d="M221.28,-192.04C211.96,-174.68 197.5,-147.77 187.14,-128.47"/>
<polygon fill="#9ca3af" stroke="#9ca3af" stroke-width="1.1" points="189.26,-127.25 183.79,-122.24 184.94,-129.57 189.26,-127.25"/>
<text text-anchor="middle" x="237.03" y="-163.8" font-family="Helvetica,sans-Serif" font-size="9.00">poll twice ⚠</text>
</g>
<!-- fbSetMode -->
<g id="node19" class="node">
<title>fbSetMode</title>
<path fill="#f0fdf4" stroke="#86efac" stroke-width="1.2" d="M1427.53,-122C1427.53,-122 1239.53,-122 1239.53,-122 1233.53,-122 1227.53,-116 1227.53,-110 1227.53,-110 1227.53,-98 1227.53,-98 1227.53,-92 1233.53,-86 1239.53,-86 1239.53,-86 1427.53,-86 1427.53,-86 1433.53,-86 1439.53,-92 1439.53,-98 1439.53,-98 1439.53,-110 1439.53,-110 1439.53,-116 1433.53,-122 1427.53,-122"/>
<text text-anchor="start" x="1235.53" y="-102.2" font-family="Helvetica,sans-Serif" font-weight="bold" font-size="11.00">set(&#39;smart&#45;traffic/mode&#39;, string)</text>
</g>
<!-- toggleMode&#45;&gt;fbSetMode -->
<g id="edge20" class="edge">
<title>toggleMode&#45;&gt;fbSetMode</title>
<path fill="none" stroke="#78716c" stroke-width="1.1" d="M285.05,-192.19C302.87,-187.38 322.88,-182.77 341.53,-180.25 420.82,-169.55 981.69,-176.16 1061.53,-171 1130.29,-166.55 1148.78,-170.14 1215.53,-153 1241.85,-146.24 1270.09,-134.91 1292.34,-124.96"/>
<polygon fill="#78716c" stroke="#78716c" stroke-width="1.1" points="1293.38,-127.18 1298.74,-122.06 1291.36,-122.71 1293.38,-127.18"/>
<text text-anchor="middle" x="1191.03" y="-163.8" font-family="Helvetica,sans-Serif" font-size="9.00">write</text>
</g>
<!-- notifMode -->
<g id="node21" class="node">
<title>notifMode</title>
<path fill="#dcfce7" stroke="#86efac" stroke-width="1.2" d="M626.53,-122C626.53,-122 542.53,-122 542.53,-122 536.53,-122 530.53,-116 530.53,-110 530.53,-110 530.53,-98 530.53,-98 530.53,-92 536.53,-86 542.53,-86 542.53,-86 626.53,-86 626.53,-86 632.53,-86 638.53,-92 638.53,-98 638.53,-98 638.53,-110 638.53,-110 638.53,-116 632.53,-122 626.53,-122"/>
<text text-anchor="start" x="548.03" y="-106.2" font-family="Helvetica,sans-Serif" font-weight="bold" font-size="11.00">Notification</text>
<text text-anchor="start" x="538.53" y="-96.8" font-family="Helvetica,sans-Serif" font-size="9.00" fill="#78716c">Mode switched to ...</text>
</g>
<!-- toggleMode&#45;&gt;notifMode -->
<g id="edge24" class="edge">
<title>toggleMode&#45;&gt;notifMode</title>
<path fill="none" stroke="#78716c" stroke-width="1.1" d="M290.74,-192.24C307.13,-187.96 324.94,-183.63 341.53,-180.25 422.97,-163.67 450.6,-186.8 526.53,-153 540.15,-146.93 553.16,-136.74 563.38,-127.3"/>
<polygon fill="#78716c" stroke="#78716c" stroke-width="1.1" points="565.09,-129.06 568.47,-122.46 561.71,-125.51 565.09,-129.06"/>
<text text-anchor="middle" x="523.53" y="-163.8" font-family="Helvetica,sans-Serif" font-size="9.00">success</text>
</g>
<!-- setLight&#45;&gt;directions -->
<g id="edge22" class="edge">
<title>setLight&#45;&gt;directions</title>
<path fill="none" stroke="#a78bfa" stroke-width="1.1" stroke-dasharray="1,5" d="M507.25,-206.5C645.25,-200.71 934.67,-185.07 1029.53,-153 1049.54,-146.23 1070.49,-135.47 1087.24,-125.85"/>
<polygon fill="#a78bfa" stroke="#a78bfa" stroke-width="1.1" points="1088.87,-127.74 1093.67,-122.09 1086.39,-123.51 1088.87,-127.74"/>
<text text-anchor="middle" x="1023.03" y="-163.8" font-family="Helvetica,sans-Serif" font-size="9.00">validates $dir</text>
</g>
<!-- setLight&#45;&gt;colors -->
<g id="edge23" class="edge">
<title>setLight&#45;&gt;colors</title>
<path fill="none" stroke="#a78bfa" stroke-width="1.1" stroke-dasharray="1,5" d="M507.07,-209.77C597.58,-208.18 753.6,-198.23 878.53,-153 895.67,-146.79 912.94,-136.12 926.57,-126.41"/>
<polygon fill="#a78bfa" stroke="#a78bfa" stroke-width="1.1" points="928.36,-128.14 932.57,-122.03 925.47,-124.18 928.36,-128.14"/>
<text text-anchor="middle" x="879.03" y="-163.8" font-family="Helvetica,sans-Serif" font-size="9.00">validates $color</text>
</g>
<!-- fbSetLight -->
<g id="node20" class="node">
<title>fbSetLight</title>
<path fill="#f0fdf4" stroke="#86efac" stroke-width="1.2" d="M1701.53,-122C1701.53,-122 1483.53,-122 1483.53,-122 1477.53,-122 1471.53,-116 1471.53,-110 1471.53,-110 1471.53,-98 1471.53,-98 1471.53,-92 1477.53,-86 1483.53,-86 1483.53,-86 1701.53,-86 1701.53,-86 1707.53,-86 1713.53,-92 1713.53,-98 1713.53,-98 1713.53,-110 1713.53,-110 1713.53,-116 1707.53,-122 1701.53,-122"/>
<text text-anchor="start" x="1479.53" y="-102.2" font-family="Helvetica,sans-Serif" font-weight="bold" font-size="11.00">set(&#39;smart&#45;traffic/lights/{dir}&#39;, color)</text>
</g>
<!-- setLight&#45;&gt;fbSetLight -->
<g id="edge21" class="edge">
<title>setLight&#45;&gt;fbSetLight</title>
<path fill="none" stroke="#78716c" stroke-width="1.1" d="M507.12,-206.18C645.73,-200.35 952.38,-186.83 1210.53,-171 1319.51,-164.32 1348.64,-175.24 1455.53,-153 1486.44,-146.57 1519.92,-134.93 1546.04,-124.73"/>
<polygon fill="#78716c" stroke="#78716c" stroke-width="1.1" points="1547.25,-126.88 1552.86,-122.03 1545.45,-122.33 1547.25,-126.88"/>
<text text-anchor="middle" x="1421.03" y="-163.8" font-family="Helvetica,sans-Serif" font-size="9.00">write</text>
</g>
<!-- notifBlocked -->
<g id="node22" class="node">
<title>notifBlocked</title>
<path fill="#fef3c7" stroke="#fcd34d" stroke-width="1.2" d="M850.03,-122C850.03,-122 683.03,-122 683.03,-122 677.03,-122 671.03,-116 671.03,-110 671.03,-110 671.03,-98 671.03,-98 671.03,-92 677.03,-86 683.03,-86 683.03,-86 850.03,-86 850.03,-86 856.03,-86 862.03,-92 862.03,-98 862.03,-98 862.03,-110 862.03,-110 862.03,-116 856.03,-122 850.03,-122"/>
<text text-anchor="start" x="730.03" y="-106.2" font-family="Helvetica,sans-Serif" font-weight="bold" font-size="11.00">Notification</text>
<text text-anchor="start" x="679.03" y="-96.8" font-family="Helvetica,sans-Serif" font-size="9.00" fill="#78716c">Cannot control manually in Auto mode</text>
</g>
<!-- setLight&#45;&gt;notifBlocked -->
<g id="edge25" class="edge">
<title>setLight&#45;&gt;notifBlocked</title>
<path fill="none" stroke="#78716c" stroke-width="1.1" stroke-dasharray="5,2" d="M507.19,-199.24C544.25,-193.13 589.36,-183.96 628.53,-171 664.36,-159.15 702.93,-140.12 730.17,-125.53"/>
<polygon fill="#78716c" stroke="#78716c" stroke-width="1.1" points="731.49,-127.6 736.49,-122.11 729.17,-123.29 731.49,-127.6"/>
<text text-anchor="middle" x="689.03" y="-163.8" font-family="Helvetica,sans-Serif" font-size="9.00">mode === auto</text>
</g>
<!-- FirebaseService -->
<g id="node17" class="node">
<title>FirebaseService</title>
<path fill="#dcfce7" stroke="#22c55e" stroke-width="1.2" d="M1391.53,-225.8C1391.53,-227.7 1365.53,-229.25 1333.53,-229.25 1301.52,-229.25 1275.53,-227.7 1275.53,-225.8 1275.53,-225.8 1275.53,-194.7 1275.53,-194.7 1275.53,-192.8 1301.52,-191.25 1333.53,-191.25 1365.53,-191.25 1391.53,-192.8 1391.53,-194.7 1391.53,-194.7 1391.53,-225.8 1391.53,-225.8"/>
<path fill="none" stroke="#22c55e" stroke-width="1.2" d="M1391.53,-225.8C1391.53,-223.89 1365.53,-222.34 1333.53,-222.34 1301.52,-222.34 1275.53,-223.89 1275.53,-225.8"/>
<text text-anchor="start" x="1283.53" y="-212.45" font-family="Helvetica,sans-Serif" font-weight="bold" font-size="11.00">FirebaseService</text>
<text text-anchor="start" x="1298.53" y="-203.05" font-family="Helvetica,sans-Serif" font-size="9.00" fill="#78716c">app() singleton</text>
</g>
<!-- FirebaseService&#45;&gt;fbGet -->
<g id="edge16" class="edge">
<title>FirebaseService&#45;&gt;fbGet</title>
<path fill="none" stroke="#78716c" stroke-width="1.1" stroke-dasharray="1,5" d="M1370.59,-191.4C1381.03,-187.07 1392.53,-182.92 1403.53,-180.25 1438.85,-171.68 1704.92,-179.75 1729.53,-153 1753.3,-127.16 1753.47,-99.68 1729.53,-74 1681.16,-22.11 1192.85,-18.26 1013.31,-18.62"/>
</g>
<!-- FirebaseService&#45;&gt;fbSetMode -->
<g id="edge17" class="edge">
<title>FirebaseService&#45;&gt;fbSetMode</title>
<path fill="none" stroke="#78716c" stroke-width="1.1" stroke-dasharray="1,5" d="M1333.53,-191.09C1333.53,-171.72 1333.53,-141.27 1333.53,-122.26"/>
</g>
<!-- FirebaseService&#45;&gt;fbSetLight -->
<g id="edge18" class="edge">
<title>FirebaseService&#45;&gt;fbSetLight</title>
<path fill="none" stroke="#78716c" stroke-width="1.1" stroke-dasharray="1,5" d="M1371.85,-191.55C1381.99,-187.37 1393.03,-183.26 1403.53,-180.25 1427.35,-173.41 1434.94,-178.61 1458.53,-171 1496.66,-158.7 1537.57,-137.2 1564.02,-122.1"/>
</g>
</g>
</svg>
