<?xml version="1.0" encoding="UTF-8" standalone="no"?>
<!DOCTYPE svg PUBLIC "-//W3C//DTD SVG 1.1//EN"
 "http://www.w3.org/Graphics/SVG/1.1/DTD/svg11.dtd">
<!-- Generated by graphviz version 2.43.0 (0)
 -->
<!-- Title: SmartTank Pages: 1 -->
<svg width="1974pt" height="559pt"
 viewBox="0.00 0.00 1973.50 559.12" xmlns="http://www.w3.org/2000/svg" xmlns:xlink="http://www.w3.org/1999/xlink">
<g id="graph0" class="graph" transform="scale(1 1) rotate(0) translate(36 523.12)">
<title>SmartTank</title>
<polygon fill="#fafaf9" stroke="transparent" points="-36,36 -36,-523.12 1937.5,-523.12 1937.5,36 -36,36"/>
<g id="clust1" class="cluster">
<title>cluster_nav</title>
<path fill="#eef2ff" stroke="#c7d2fe" d="M20,-263.12C20,-263.12 481,-263.12 481,-263.12 487,-263.12 493,-269.12 493,-275.12 493,-275.12 493,-330.12 493,-330.12 493,-336.12 487,-342.12 481,-342.12 481,-342.12 20,-342.12 20,-342.12 14,-342.12 8,-336.12 8,-330.12 8,-330.12 8,-275.12 8,-275.12 8,-269.12 14,-263.12 20,-263.12"/>
<text text-anchor="start" x="193" y="-331.12" font-family="Helvetica,sans-Serif" font-weight="bold" font-size="10.00">Navigation methods</text>
</g>
<g id="clust2" class="cluster">
<title>cluster_state</title>
<path fill="#fef2f2" stroke="#fecaca" d="M513,-263.12C513,-263.12 1156,-263.12 1156,-263.12 1162,-263.12 1168,-269.12 1168,-275.12 1168,-275.12 1168,-330.12 1168,-330.12 1168,-336.12 1162,-342.12 1156,-342.12 1156,-342.12 513,-342.12 513,-342.12 507,-342.12 501,-336.12 501,-330.12 501,-330.12 501,-275.12 501,-275.12 501,-269.12 507,-263.12 513,-263.12"/>
<text text-anchor="start" x="784.5" y="-331.12" font-family="Helvetica,sans-Serif" font-weight="bold" font-size="10.00">Public properties</text>
</g>
<g id="clust3" class="cluster">
<title>cluster_methods</title>
<path fill="#fffbeb" stroke="#fde68a" d="M1254,-175.88C1254,-175.88 1478,-175.88 1478,-175.88 1484,-175.88 1490,-181.88 1490,-187.88 1490,-187.88 1490,-330.12 1490,-330.12 1490,-336.12 1484,-342.12 1478,-342.12 1478,-342.12 1254,-342.12 1254,-342.12 1248,-342.12 1242,-336.12 1242,-330.12 1242,-330.12 1242,-187.88 1242,-187.88 1242,-181.88 1248,-175.88 1254,-175.88"/>
<text text-anchor="start" x="1341.5" y="-331.12" font-family="Helvetica,sans-Serif" font-weight="bold" font-size="10.00">Methods</text>
</g>
<!-- Page -->
<g id="node1" class="node">
<title>Page</title>
<path fill="#1e293b" stroke="#1e293b" stroke-width="1.2" d="M932,-487.12C932,-487.12 740,-487.12 740,-487.12 734,-487.12 728,-481.12 728,-475.12 728,-475.12 728,-460.12 728,-460.12 728,-454.12 734,-448.12 740,-448.12 740,-448.12 932,-448.12 932,-448.12 938,-448.12 944,-454.12 944,-460.12 944,-460.12 944,-475.12 944,-475.12 944,-481.12 938,-487.12 932,-487.12"/>
<text text-anchor="start" x="796.5" y="-473.73" font-family="Helvetica,sans-Serif" font-weight="bold" font-size="13.00" fill="white">SmartTank</text>
<text text-anchor="start" x="756" y="-463.93" font-family="Helvetica,sans-Serif" font-size="9.00" fill="#78716c">extends Page · uses HasPageShield</text>
<text text-anchor="start" x="763" y="-454.93" font-family="Helvetica,sans-Serif" font-size="9.00" fill="#78716c">view: filament.pages.smart&#45;tank</text>
</g>
<!-- Nav -->
<g id="node2" class="node">
<title>Nav</title>
<path fill="#e0e7ff" stroke="#6366f1" stroke-width="1.2" d="M416.5,-407.12C416.5,-407.12 307.5,-407.12 307.5,-407.12 301.5,-407.12 295.5,-401.12 295.5,-395.12 295.5,-395.12 295.5,-383.12 295.5,-383.12 295.5,-377.12 301.5,-371.12 307.5,-371.12 307.5,-371.12 416.5,-371.12 416.5,-371.12 422.5,-371.12 428.5,-377.12 428.5,-383.12 428.5,-383.12 428.5,-395.12 428.5,-395.12 428.5,-401.12 422.5,-407.12 416.5,-407.12"/>
<text text-anchor="start" x="303.5" y="-387.32" font-family="Helvetica,sans-Serif" font-weight="bold" font-size="11.00">Navigation (static)</text>
</g>
<!-- Page&#45;&gt;Nav -->
<g id="edge1" class="edge">
<title>Page&#45;&gt;Nav</title>
<path fill="none" stroke="#78716c" stroke-width="1.1" d="M727.85,-449.17C638.47,-434.74 513.95,-414.65 435.69,-402.02"/>
<polygon fill="#78716c" stroke="#78716c" stroke-width="1.1" points="436.03,-399.59 428.73,-400.9 435.25,-404.43 436.03,-399.59"/>
</g>
<!-- State -->
<g id="node3" class="node">
<title>State</title>
<path fill="#fee2e2" stroke="#ef4444" stroke-width="1.2" d="M851,-407.12C851,-407.12 821,-407.12 821,-407.12 815,-407.12 809,-401.12 809,-395.12 809,-395.12 809,-383.12 809,-383.12 809,-377.12 815,-371.12 821,-371.12 821,-371.12 851,-371.12 851,-371.12 857,-371.12 863,-377.12 863,-383.12 863,-383.12 863,-395.12 863,-395.12 863,-401.12 857,-407.12 851,-407.12"/>
<text text-anchor="start" x="819" y="-387.32" font-family="Helvetica,sans-Serif" font-weight="bold" font-size="11.00">State</text>
</g>
<!-- Page&#45;&gt;State -->
<g id="edge2" class="edge">
<title>Page&#45;&gt;State</title>
<path fill="none" stroke="#78716c" stroke-width="1.1" d="M836,-448.11C836,-437.97 836,-425.3 836,-414.39"/>
<polygon fill="#78716c" stroke="#78716c" stroke-width="1.1" points="838.45,-414.17 836,-407.17 833.55,-414.17 838.45,-414.17"/>
</g>
<!-- Methods -->
<g id="node4" class="node">
<title>Methods</title>
<path fill="#fef3c7" stroke="#f59e0b" stroke-width="1.2" d="M1291,-407.12C1291,-407.12 1181,-407.12 1181,-407.12 1175,-407.12 1169,-401.12 1169,-395.12 1169,-395.12 1169,-383.12 1169,-383.12 1169,-377.12 1175,-371.12 1181,-371.12 1181,-371.12 1291,-371.12 1291,-371.12 1297,-371.12 1303,-377.12 1303,-383.12 1303,-383.12 1303,-395.12 1303,-395.12 1303,-401.12 1297,-407.12 1291,-407.12"/>
<text text-anchor="start" x="1177" y="-387.32" font-family="Helvetica,sans-Serif" font-weight="bold" font-size="11.00">Lifecycle &amp; Actions</text>
</g>
<!-- Page&#45;&gt;Methods -->
<g id="edge3" class="edge">
<title>Page&#45;&gt;Methods</title>
<path fill="none" stroke="#78716c" stroke-width="1.1" d="M932.83,-448.11C1003.32,-434.62 1097.37,-416.64 1161.92,-404.29"/>
<polygon fill="#78716c" stroke="#78716c" stroke-width="1.1" points="1162.44,-406.69 1168.85,-402.97 1161.52,-401.88 1162.44,-406.69"/>
</g>
<!-- navIcon -->
<g id="node5" class="node">
<title>navIcon</title>
<path fill="white" stroke="#a5b4fc" stroke-width="1.2" d="M299.5,-311.12C299.5,-311.12 194.5,-311.12 194.5,-311.12 188.5,-311.12 182.5,-305.12 182.5,-299.12 182.5,-299.12 182.5,-287.12 182.5,-287.12 182.5,-281.12 188.5,-275.12 194.5,-275.12 194.5,-275.12 299.5,-275.12 299.5,-275.12 305.5,-275.12 311.5,-281.12 311.5,-287.12 311.5,-287.12 311.5,-299.12 311.5,-299.12 311.5,-305.12 305.5,-311.12 299.5,-311.12"/>
<text text-anchor="start" x="190.5" y="-295.32" font-family="Helvetica,sans-Serif" font-weight="bold" font-size="11.00">getNavigationIcon</text>
<text text-anchor="start" x="205.5" y="-285.93" font-family="Helvetica,sans-Serif" font-size="9.00" fill="#78716c">heroicon&#45;o&#45;beaker</text>
</g>
<!-- Nav&#45;&gt;navIcon -->
<g id="edge4" class="edge">
<title>Nav&#45;&gt;navIcon</title>
<path fill="none" stroke="#78716c" stroke-width="1.1" d="M341.17,-371.1C322.24,-355.63 294.21,-332.71 273.65,-315.91"/>
<polygon fill="#78716c" stroke="#78716c" stroke-width="1.1" points="275.03,-313.87 268.06,-311.34 271.93,-317.67 275.03,-313.87"/>
</g>
<!-- navLabel -->
<g id="node6" class="node">
<title>navLabel</title>
<path fill="white" stroke="#a5b4fc" stroke-width="1.2" d="M468.5,-311.12C468.5,-311.12 355.5,-311.12 355.5,-311.12 349.5,-311.12 343.5,-305.12 343.5,-299.12 343.5,-299.12 343.5,-287.12 343.5,-287.12 343.5,-281.12 349.5,-275.12 355.5,-275.12 355.5,-275.12 468.5,-275.12 468.5,-275.12 474.5,-275.12 480.5,-281.12 480.5,-287.12 480.5,-287.12 480.5,-299.12 480.5,-299.12 480.5,-305.12 474.5,-311.12 468.5,-311.12"/>
<text text-anchor="start" x="351.5" y="-295.32" font-family="Helvetica,sans-Serif" font-weight="bold" font-size="11.00">getNavigationLabel</text>
<text text-anchor="start" x="384.5" y="-285.93" font-family="Helvetica,sans-Serif" font-size="9.00" fill="#78716c">&#39;Water Tank&#39;</text>
</g>
<!-- Nav&#45;&gt;navLabel -->
<g id="edge5" class="edge">
<title>Nav&#45;&gt;navLabel</title>
<path fill="none" stroke="#78716c" stroke-width="1.1" d="M371.17,-370.88C379.14,-355.91 390.74,-334.09 399.54,-317.54"/>
<polygon fill="#78716c" stroke="#78716c" stroke-width="1.1" points="401.76,-318.59 402.89,-311.26 397.44,-316.29 401.76,-318.59"/>
</g>
<!-- navSort -->
<g id="node7" class="node">
<title>navSort</title>
<path fill="white" stroke="#a5b4fc" stroke-width="1.2" d="M138,-311.12C138,-311.12 32,-311.12 32,-311.12 26,-311.12 20,-305.12 20,-299.12 20,-299.12 20,-287.12 20,-287.12 20,-281.12 26,-275.12 32,-275.12 32,-275.12 138,-275.12 138,-275.12 144,-275.12 150,-281.12 150,-287.12 150,-287.12 150,-299.12 150,-299.12 150,-305.12 144,-311.12 138,-311.12"/>
<text text-anchor="start" x="28" y="-295.32" font-family="Helvetica,sans-Serif" font-weight="bold" font-size="11.00">getNavigationSort</text>
<text text-anchor="start" x="81.5" y="-285.93" font-family="Helvetica,sans-Serif" font-size="9.00" fill="#78716c">1</text>
</g>
<!-- Nav&#45;&gt;navSort -->
<g id="edge6" class="edge">
<title>Nav&#45;&gt;navSort</title>
<path fill="none" stroke="#78716c" stroke-width="1.1" d="M295.13,-377.66C256.5,-370.33 207.5,-358.83 166,-342.12 148.49,-335.07 130.29,-324.61 115.59,-315.26"/>
<polygon fill="#78716c" stroke="#78716c" stroke-width="1.1" points="116.72,-313.07 109.51,-311.33 114.06,-317.19 116.72,-313.07"/>
</g>
<!-- level -->
<g id="node8" class="node">
<title>level</title>
<path fill="white" stroke="#fca5a5" stroke-width="1.2" d="M1143.5,-311.12C1143.5,-311.12 1084.5,-311.12 1084.5,-311.12 1078.5,-311.12 1072.5,-305.12 1072.5,-299.12 1072.5,-299.12 1072.5,-287.12 1072.5,-287.12 1072.5,-281.12 1078.5,-275.12 1084.5,-275.12 1084.5,-275.12 1143.5,-275.12 1143.5,-275.12 1149.5,-275.12 1155.5,-281.12 1155.5,-287.12 1155.5,-287.12 1155.5,-299.12 1155.5,-299.12 1155.5,-305.12 1149.5,-311.12 1143.5,-311.12"/>
<text text-anchor="start" x="1098.5" y="-295.32" font-family="Helvetica,sans-Serif" font-weight="bold" font-size="11.00">level</text>
<text text-anchor="start" x="1080.5" y="-285.93" font-family="Helvetica,sans-Serif" font-size="9.00" fill="#78716c">int · current %</text>
</g>
<!-- State&#45;&gt;level -->
<g id="edge7" class="edge">
<title>State&#45;&gt;level</title>
<path fill="none" stroke="#78716c" stroke-width="1.1" d="M863.07,-386.65C905.96,-383.41 991.31,-373.27 1056,-342.12 1069.44,-335.65 1082.42,-325.42 1092.68,-316.05"/>
<polygon fill="#78716c" stroke="#78716c" stroke-width="1.1" points="1094.36,-317.84 1097.79,-311.26 1091.01,-314.26 1094.36,-317.84"/>
</g>
<!-- status -->
<g id="node9" class="node">
<title>status</title>
<path fill="white" stroke="#fca5a5" stroke-width="1.2" d="M607,-311.12C607,-311.12 525,-311.12 525,-311.12 519,-311.12 513,-305.12 513,-299.12 513,-299.12 513,-287.12 513,-287.12 513,-281.12 519,-275.12 525,-275.12 525,-275.12 607,-275.12 607,-275.12 613,-275.12 619,-281.12 619,-287.12 619,-287.12 619,-299.12 619,-299.12 619,-305.12 613,-311.12 607,-311.12"/>
<text text-anchor="start" x="546" y="-295.32" font-family="Helvetica,sans-Serif" font-weight="bold" font-size="11.00">status</text>
<text text-anchor="start" x="521" y="-285.93" font-family="Helvetica,sans-Serif" font-size="9.00" fill="#78716c">string · &#39;Normal&#39; etc</text>
</g>
<!-- State&#45;&gt;status -->
<g id="edge8" class="edge">
<title>State&#45;&gt;status</title>
<path fill="none" stroke="#78716c" stroke-width="1.1" d="M808.95,-385.26C769.36,-380.34 693.93,-368.19 635,-342.12 619.75,-335.38 604.36,-325.09 592,-315.76"/>
<polygon fill="#78716c" stroke="#78716c" stroke-width="1.1" points="593.23,-313.62 586.19,-311.28 590.23,-317.5 593.23,-313.62"/>
</g>
<!-- isPumpOn -->
<g id="node10" class="node">
<title>isPumpOn</title>
<path fill="#fff7ed" stroke="#fb923c" stroke-width="1.2" d="M717,-311.12C717,-311.12 663,-311.12 663,-311.12 657,-311.12 651,-305.12 651,-299.12 651,-299.12 651,-287.12 651,-287.12 651,-281.12 657,-275.12 663,-275.12 663,-275.12 717,-275.12 717,-275.12 723,-275.12 729,-281.12 729,-287.12 729,-287.12 729,-299.12 729,-299.12 729,-305.12 723,-311.12 717,-311.12"/>
<text text-anchor="start" x="659" y="-295.32" font-family="Helvetica,sans-Serif" font-weight="bold" font-size="11.00">isPumpOn</text>
<text text-anchor="start" x="680.5" y="-285.93" font-family="Helvetica,sans-Serif" font-size="9.00" fill="#78716c">bool</text>
</g>
<!-- State&#45;&gt;isPumpOn -->
<g id="edge9" class="edge">
<title>State&#45;&gt;isPumpOn</title>
<path fill="none" stroke="#78716c" stroke-width="1.1" d="M808.68,-376.22C790.34,-367.74 765.97,-355.51 746,-342.12 734.51,-334.42 722.75,-324.68 712.99,-315.98"/>
<polygon fill="#78716c" stroke="#78716c" stroke-width="1.1" points="714.62,-314.16 707.79,-311.28 711.34,-317.79 714.62,-314.16"/>
</g>
<!-- history -->
<g id="node11" class="node">
<title>history</title>
<path fill="white" stroke="#fca5a5" stroke-width="1.2" d="M898.5,-311.12C898.5,-311.12 773.5,-311.12 773.5,-311.12 767.5,-311.12 761.5,-305.12 761.5,-299.12 761.5,-299.12 761.5,-287.12 761.5,-287.12 761.5,-281.12 767.5,-275.12 773.5,-275.12 773.5,-275.12 898.5,-275.12 898.5,-275.12 904.5,-275.12 910.5,-281.12 910.5,-287.12 910.5,-287.12 910.5,-299.12 910.5,-299.12 910.5,-305.12 904.5,-311.12 898.5,-311.12"/>
<text text-anchor="start" x="814" y="-295.32" font-family="Helvetica,sans-Serif" font-weight="bold" font-size="11.00">history</text>
<text text-anchor="start" x="769.5" y="-285.93" font-family="Helvetica,sans-Serif" font-size="9.00" fill="#78716c">array · last 20 levels for chart</text>
</g>
<!-- State&#45;&gt;history -->
<g id="edge10" class="edge">
<title>State&#45;&gt;history</title>
<path fill="none" stroke="#78716c" stroke-width="1.1" d="M836,-370.88C836,-356.18 836,-334.86 836,-318.42"/>
<polygon fill="#78716c" stroke="#78716c" stroke-width="1.1" points="838.45,-318.26 836,-311.26 833.55,-318.26 838.45,-318.26"/>
</g>
<!-- lastUpdated -->
<g id="node12" class="node">
<title>lastUpdated</title>
<path fill="white" stroke="#fca5a5" stroke-width="1.2" d="M1028,-311.12C1028,-311.12 954,-311.12 954,-311.12 948,-311.12 942,-305.12 942,-299.12 942,-299.12 942,-287.12 942,-287.12 942,-281.12 948,-275.12 954,-275.12 954,-275.12 1028,-275.12 1028,-275.12 1034,-275.12 1040,-281.12 1040,-287.12 1040,-287.12 1040,-299.12 1040,-299.12 1040,-305.12 1034,-311.12 1028,-311.12"/>
<text text-anchor="start" x="953" y="-295.32" font-family="Helvetica,sans-Serif" font-weight="bold" font-size="11.00">lastUpdated</text>
<text text-anchor="start" x="950" y="-285.93" font-family="Helvetica,sans-Serif" font-size="9.00" fill="#78716c">string · HH:MM:SS</text>
</g>
<!-- State&#45;&gt;lastUpdated -->
<g id="edge11" class="edge">
<title>State&#45;&gt;lastUpdated</title>
<path fill="none" stroke="#78716c" stroke-width="1.1" d="M863.35,-375.84C881.78,-367.19 906.4,-354.92 927,-342.12 939.76,-334.2 953.16,-324.4 964.38,-315.73"/>
<polygon fill="#78716c" stroke="#78716c" stroke-width="1.1" points="966.03,-317.56 970.04,-311.32 963.01,-313.69 966.03,-317.56"/>
</g>
<!-- mount -->
<g id="node13" class="node">
<title>mount</title>
<path fill="white" stroke="#fcd34d" stroke-width="1.2" d="M1313.5,-311.12C1313.5,-311.12 1266.5,-311.12 1266.5,-311.12 1260.5,-311.12 1254.5,-305.12 1254.5,-299.12 1254.5,-299.12 1254.5,-287.12 1254.5,-287.12 1254.5,-281.12 1260.5,-275.12 1266.5,-275.12 1266.5,-275.12 1313.5,-275.12 1313.5,-275.12 1319.5,-275.12 1325.5,-281.12 1325.5,-287.12 1325.5,-287.12 1325.5,-299.12 1325.5,-299.12 1325.5,-305.12 1319.5,-311.12 1313.5,-311.12"/>
<text text-anchor="start" x="1265" y="-295.32" font-family="Helvetica,sans-Serif" font-weight="bold" font-size="11.00">mount()</text>
<text text-anchor="start" x="1262.5" y="-285.93" font-family="Helvetica,sans-Serif" font-size="9.00" fill="#78716c">Livewire init</text>
</g>
<!-- Methods&#45;&gt;mount -->
<g id="edge12" class="edge">
<title>Methods&#45;&gt;mount</title>
<path fill="none" stroke="#78716c" stroke-width="1.1" d="M1245.9,-370.88C1254.51,-355.91 1267.04,-334.09 1276.55,-317.54"/>
<polygon fill="#78716c" stroke="#78716c" stroke-width="1.1" points="1278.8,-318.55 1280.16,-311.26 1274.55,-316.11 1278.8,-318.55"/>
</g>
<!-- fetchData -->
<g id="node14" class="node">
<title>fetchData</title>
<path fill="white" stroke="#fcd34d" stroke-width="1.2" d="M1376,-223.88C1376,-223.88 1266,-223.88 1266,-223.88 1260,-223.88 1254,-217.88 1254,-211.88 1254,-211.88 1254,-199.88 1254,-199.88 1254,-193.88 1260,-187.88 1266,-187.88 1266,-187.88 1376,-187.88 1376,-187.88 1382,-187.88 1388,-193.88 1388,-199.88 1388,-199.88 1388,-211.88 1388,-211.88 1388,-217.88 1382,-223.88 1376,-223.88"/>
<text text-anchor="start" x="1285" y="-208.07" font-family="Helvetica,sans-Serif" font-weight="bold" font-size="11.00">fetchData()</text>
<text text-anchor="start" x="1262" y="-198.67" font-family="Helvetica,sans-Serif" font-size="9.00" fill="#78716c">load latest + chart history</text>
</g>
<!-- Methods&#45;&gt;fetchData -->
<g id="edge13" class="edge">
<title>Methods&#45;&gt;fetchData</title>
<path fill="none" stroke="#78716c" stroke-width="1.1" d="M1231.8,-371.12C1226.53,-345.85 1220.27,-297.67 1239,-263.12 1247.06,-248.25 1260.97,-236.52 1275.06,-227.71"/>
<polygon fill="#78716c" stroke="#78716c" stroke-width="1.1" points="1276.34,-229.8 1281.1,-224.11 1273.83,-225.59 1276.34,-229.8"/>
</g>
<!-- togglePump -->
<g id="node15" class="node">
<title>togglePump</title>
<path fill="white" stroke="#fcd34d" stroke-width="1.2" d="M1466,-311.12C1466,-311.12 1370,-311.12 1370,-311.12 1364,-311.12 1358,-305.12 1358,-299.12 1358,-299.12 1358,-287.12 1358,-287.12 1358,-281.12 1364,-275.12 1370,-275.12 1370,-275.12 1466,-275.12 1466,-275.12 1472,-275.12 1478,-281.12 1478,-287.12 1478,-287.12 1478,-299.12 1478,-299.12 1478,-305.12 1472,-311.12 1466,-311.12"/>
<text text-anchor="start" x="1375.5" y="-295.32" font-family="Helvetica,sans-Serif" font-weight="bold" font-size="11.00">togglePump()</text>
<text text-anchor="start" x="1366" y="-285.93" font-family="Helvetica,sans-Serif" font-size="9.00" fill="#78716c">user action · optimistic</text>
</g>
<!-- Methods&#45;&gt;togglePump -->
<g id="edge14" class="edge">
<title>Methods&#45;&gt;togglePump</title>
<path fill="none" stroke="#78716c" stroke-width="1.1" d="M1279.51,-371.02C1298.96,-362.93 1321.96,-352.72 1342,-342.12 1357.19,-334.09 1373.38,-324.09 1386.89,-315.29"/>
<polygon fill="#78716c" stroke="#78716c" stroke-width="1.1" points="1388.39,-317.24 1392.9,-311.35 1385.71,-313.14 1388.39,-317.24"/>
</g>
<!-- mount&#45;&gt;fetchData -->
<g id="edge16" class="edge">
<title>mount&#45;&gt;fetchData</title>
<path fill="none" stroke="#9ca3af" stroke-width="1.1" stroke-dasharray="5,2" d="M1296.27,-274.87C1300.9,-262.16 1307.24,-244.72 1312.34,-230.68"/>
<polygon fill="#9ca3af" stroke="#9ca3af" stroke-width="1.1" points="1314.65,-231.52 1314.74,-224.1 1310.04,-229.84 1314.65,-231.52"/>
<text text-anchor="middle" x="1317" y="-246.68" font-family="Helvetica,sans-Serif" font-size="9.00">calls</text>
</g>
<!-- SmartTankData -->
<g id="node16" class="node">
<title>SmartTankData</title>
<path fill="#dbeafe" stroke="#3b82f6" stroke-width="1.2" d="M1556.5,-46.2C1556.5,-48.74 1526.69,-50.81 1490,-50.81 1453.31,-50.81 1423.5,-48.74 1423.5,-46.2 1423.5,-46.2 1423.5,-4.68 1423.5,-4.68 1423.5,-2.13 1453.31,-0.06 1490,-0.06 1526.69,-0.06 1556.5,-2.13 1556.5,-4.68 1556.5,-4.68 1556.5,-46.2 1556.5,-46.2"/>
<path fill="none" stroke="#3b82f6" stroke-width="1.2" d="M1556.5,-46.2C1556.5,-43.65 1526.69,-41.59 1490,-41.59 1453.31,-41.59 1423.5,-43.65 1423.5,-46.2"/>
<text text-anchor="start" x="1442" y="-32.14" font-family="Helvetica,sans-Serif" font-weight="bold" font-size="11.00">SmartTankData</text>
<text text-anchor="start" x="1454" y="-22.74" font-family="Helvetica,sans-Serif" font-size="9.00" fill="#78716c">Eloquent model</text>
<text text-anchor="start" x="1431.5" y="-13.74" font-family="Helvetica,sans-Serif" font-size="9.00" fill="#78716c">latest()&#45;&gt;first() · take(20)</text>
</g>
<!-- fetchData&#45;&gt;SmartTankData -->
<g id="edge17" class="edge">
<title>fetchData&#45;&gt;SmartTankData</title>
<path fill="none" stroke="#78716c" stroke-width="1.1" d="M1337.2,-187.77C1365.95,-157.42 1426.17,-93.83 1461.83,-56.18"/>
<polygon fill="#78716c" stroke="#78716c" stroke-width="1.1" points="1463.87,-57.59 1466.9,-50.82 1460.31,-54.22 1463.87,-57.59"/>
<text text-anchor="middle" x="1454.5" y="-117.17" font-family="Helvetica,sans-Serif" font-size="9.00">latest() + history</text>
</g>
<!-- fbSet -->
<g id="node19" class="node">
<title>fbSet</title>
<path fill="#f0fdf4" stroke="#86efac" stroke-width="1.2" d="M1889.5,-223.88C1889.5,-223.88 1692.5,-223.88 1692.5,-223.88 1686.5,-223.88 1680.5,-217.88 1680.5,-211.88 1680.5,-211.88 1680.5,-199.88 1680.5,-199.88 1680.5,-193.88 1686.5,-187.88 1692.5,-187.88 1692.5,-187.88 1889.5,-187.88 1889.5,-187.88 1895.5,-187.88 1901.5,-193.88 1901.5,-199.88 1901.5,-199.88 1901.5,-211.88 1901.5,-211.88 1901.5,-217.88 1895.5,-223.88 1889.5,-223.88"/>
<text text-anchor="start" x="1688.5" y="-204.07" font-family="Helvetica,sans-Serif" font-weight="bold" font-size="11.00">set(&#39;smart&#45;tank/isPumpOn&#39;, bool)</text>
</g>
<!-- togglePump&#45;&gt;fbSet -->
<g id="edge18" class="edge">
<title>togglePump&#45;&gt;fbSet</title>
<path fill="none" stroke="#78716c" stroke-width="1.1" d="M1478.34,-278.33C1541.14,-263.98 1639.85,-241.42 1709.53,-225.5"/>
<polygon fill="#78716c" stroke="#78716c" stroke-width="1.1" points="1710.33,-227.83 1716.6,-223.88 1709.23,-223.05 1710.33,-227.83"/>
<text text-anchor="middle" x="1637.5" y="-246.68" font-family="Helvetica,sans-Serif" font-size="9.00">write</text>
</g>
<!-- notif -->
<g id="node20" class="node">
<title>notif</title>
<path fill="#dcfce7" stroke="#86efac" stroke-width="1.2" d="M1636,-223.88C1636,-223.88 1514,-223.88 1514,-223.88 1508,-223.88 1502,-217.88 1502,-211.88 1502,-211.88 1502,-199.88 1502,-199.88 1502,-193.88 1508,-187.88 1514,-187.88 1514,-187.88 1636,-187.88 1636,-187.88 1642,-187.88 1648,-193.88 1648,-199.88 1648,-199.88 1648,-211.88 1648,-211.88 1648,-217.88 1642,-223.88 1636,-223.88"/>
<text text-anchor="start" x="1538.5" y="-208.07" font-family="Helvetica,sans-Serif" font-weight="bold" font-size="11.00">Notification</text>
<text text-anchor="start" x="1510" y="-198.67" font-family="Helvetica,sans-Serif" font-size="9.00" fill="#78716c">Pump Activated/Deactivated</text>
</g>
<!-- togglePump&#45;&gt;notif -->
<g id="edge21" class="edge">
<title>togglePump&#45;&gt;notif</title>
<path fill="none" stroke="#78716c" stroke-width="1.1" d="M1449.39,-275.08C1474.74,-261.31 1510.49,-241.9 1537.38,-227.3"/>
<polygon fill="#78716c" stroke="#78716c" stroke-width="1.1" points="1538.68,-229.39 1543.66,-223.89 1536.34,-225.08 1538.68,-229.39"/>
<text text-anchor="middle" x="1523" y="-246.68" font-family="Helvetica,sans-Serif" font-size="9.00">success</text>
</g>
<!-- FirebaseService -->
<g id="node17" class="node">
<title>FirebaseService</title>
<path fill="#dcfce7" stroke="#22c55e" stroke-width="1.2" d="M1849,-308.67C1849,-310.58 1823,-312.13 1791,-312.13 1759,-312.13 1733,-310.58 1733,-308.67 1733,-308.67 1733,-277.58 1733,-277.58 1733,-275.67 1759,-274.12 1791,-274.12 1823,-274.12 1849,-275.67 1849,-277.58 1849,-277.58 1849,-308.67 1849,-308.67"/>
<path fill="none" stroke="#22c55e" stroke-width="1.2" d="M1849,-308.67C1849,-306.77 1823,-305.22 1791,-305.22 1759,-305.22 1733,-306.77 1733,-308.67"/>
<text text-anchor="start" x="1741" y="-295.32" font-family="Helvetica,sans-Serif" font-weight="bold" font-size="11.00">FirebaseService</text>
<text text-anchor="start" x="1756" y="-285.93" font-family="Helvetica,sans-Serif" font-size="9.00" fill="#78716c">app() singleton</text>
</g>
<!-- FirebaseService&#45;&gt;fbSet -->
<g id="edge15" class="edge">
<title>FirebaseService&#45;&gt;fbSet</title>
<path fill="none" stroke="#78716c" stroke-width="1.1" stroke-dasharray="1,5" d="M1791,-274.05C1791,-259.29 1791,-238.57 1791,-224.06"/>
</g>
<!-- SyncJob -->
<g id="node18" class="node">
<title>SyncJob</title>
<polygon fill="#f5f3ff" stroke="#a78bfa" stroke-width="1.2" points="1788.5,-137.88 1643.5,-137.88 1643.5,-100.88 1794.5,-100.88 1794.5,-131.88 1788.5,-137.88"/>
<polyline fill="none" stroke="#a78bfa" stroke-width="1.2" points="1788.5,-137.88 1788.5,-131.88 "/>
<polyline fill="none" stroke="#a78bfa" stroke-width="1.2" points="1794.5,-131.88 1788.5,-131.88 "/>
<text text-anchor="start" x="1694.5" y="-126.08" font-family="Helvetica,sans-Serif" font-weight="bold" font-size="11.00">SyncJob</text>
<text text-anchor="start" x="1651.5" y="-116.68" font-family="Helvetica,sans-Serif" font-size="9.00" fill="#78716c">background worker · external</text>
<text text-anchor="start" x="1687" y="-107.68" font-family="Helvetica,sans-Serif" font-size="9.00" fill="#78716c">Firebase → DB</text>
</g>
<!-- SyncJob&#45;&gt;SmartTankData -->
<g id="edge19" class="edge">
<title>SyncJob&#45;&gt;SmartTankData</title>
<path fill="none" stroke="#a78bfa" stroke-width="1.1" stroke-dasharray="5,2" d="M1675.39,-100.87C1641.04,-87.08 1592.66,-67.65 1553.93,-52.11"/>
<polygon fill="#a78bfa" stroke="#a78bfa" stroke-width="1.1" points="1554.72,-49.78 1547.32,-49.45 1552.9,-54.33 1554.72,-49.78"/>
<text text-anchor="middle" x="1639" y="-73.67" font-family="Helvetica,sans-Serif" font-size="9.00">writes</text>
</g>
<!-- fbSet&#45;&gt;SyncJob -->
<g id="edge20" class="edge">
<title>fbSet&#45;&gt;SyncJob</title>
<path fill="none" stroke="#a78bfa" stroke-width="1.1" stroke-dasharray="5,2" d="M1776.43,-187.78C1765.55,-175 1750.56,-157.41 1738.62,-143.4"/>
<polygon fill="#a78bfa" stroke="#a78bfa" stroke-width="1.1" points="1740.45,-141.77 1734.04,-138.03 1736.72,-144.95 1740.45,-141.77"/>
<text text-anchor="middle" x="1793.5" y="-160.68" font-family="Helvetica,sans-Serif" font-size="9.00">picked up later</text>
</g>
</g>
</svg>
