<?xml version="1.0" encoding="UTF-8" standalone="no"?>
<!DOCTYPE svg PUBLIC "-//W3C//DTD SVG 1.1//EN"
 "http://www.w3.org/Graphics/SVG/1.1/DTD/svg11.dtd">
<!-- Generated by graphviz version 2.43.0 (0)
 -->
<!-- Title: SmartParkingActions Pages: 1 -->
<svg width="1085pt" height="792pt"
 viewBox="0.00 0.00 1085.00 792.00" xmlns="http://www.w3.org/2000/svg" xmlns:xlink="http://www.w3.org/1999/xlink">
<g id="graph0" class="graph" transform="scale(1 1) rotate(0) translate(36 756)">
<title>SmartParkingActions</title>
<polygon fill="#fafaf9" stroke="transparent" points="-36,36 -36,-756 1049,-756 1049,36 -36,36"/>
<g id="clust1" class="cluster">
<title>cluster_reserve</title>
<path fill="#fff7ed" stroke="#fed7aa" d="M20,-91C20,-91 429,-91 429,-91 435,-91 441,-97 441,-103 441,-103 441,-700 441,-700 441,-706 435,-712 429,-712 429,-712 20,-712 20,-712 14,-712 8,-706 8,-700 8,-700 8,-103 8,-103 8,-97 14,-91 20,-91"/>
<text text-anchor="start" x="105.5" y="-699.4" font-family="Helvetica,sans-Serif" font-weight="bold" font-size="12.00">reserveSlotAction() · business flow</text>
</g>
<g id="clust2" class="cluster">
<title>cluster_release</title>
<path fill="#fef2f2" stroke="#fecaca" d="M461,-8C461,-8 993,-8 993,-8 999,-8 1005,-14 1005,-20 1005,-20 1005,-700 1005,-700 1005,-706 999,-712 993,-712 993,-712 461,-712 461,-712 455,-712 449,-706 449,-700 449,-700 449,-20 449,-20 449,-14 455,-8 461,-8"/>
<text text-anchor="start" x="609" y="-699.4" font-family="Helvetica,sans-Serif" font-weight="bold" font-size="12.00">releaseSlotAction() · business flow</text>
</g>
<!-- r_start -->
<g id="node1" class="node">
<title>r_start</title>
<path fill="#1e293b" stroke="#1e293b" stroke-width="1.2" d="M234.5,-673C234.5,-673 85.5,-673 85.5,-673 79.5,-673 73.5,-667 73.5,-661 73.5,-661 73.5,-649 73.5,-649 73.5,-643 79.5,-637 85.5,-637 85.5,-637 234.5,-637 234.5,-637 240.5,-637 246.5,-643 246.5,-649 246.5,-649 246.5,-661 246.5,-661 246.5,-667 240.5,-673 234.5,-673"/>
<text text-anchor="start" x="81.5" y="-657.2" font-family="Helvetica,sans-Serif" font-weight="bold" font-size="11.00" fill="white">User clicks &#39;Reserve Slot&#39;</text>
<text text-anchor="start" x="115.5" y="-647.8" font-family="Helvetica,sans-Serif" font-size="9.00" fill="#78716c">confirmation modal</text>
</g>
<!-- r_load -->
<g id="node2" class="node">
<title>r_load</title>
<path fill="white" stroke="#fdba74" stroke-width="1.2" d="M213,-596C213,-596 107,-596 107,-596 101,-596 95,-590 95,-584 95,-584 95,-572 95,-572 95,-566 101,-560 107,-560 107,-560 213,-560 213,-560 219,-560 225,-566 225,-572 225,-572 225,-584 225,-584 225,-590 219,-596 213,-596"/>
<text text-anchor="start" x="146.5" y="-580.2" font-family="Helvetica,sans-Serif" font-weight="bold" font-size="11.00">load</text>
<text text-anchor="start" x="103" y="-570.8" font-family="Helvetica,sans-Serif" font-size="9.00" fill="#78716c">ParkingSlot::find($slotId)</text>
</g>
<!-- r_start&#45;&gt;r_load -->
<g id="edge1" class="edge">
<title>r_start&#45;&gt;r_load</title>
<path fill="none" stroke="#78716c" stroke-width="1.1" d="M160,-636.98C160,-627.08 160,-614.43 160,-603.47"/>
<polygon fill="#78716c" stroke="#78716c" stroke-width="1.1" points="162.45,-603.21 160,-596.21 157.55,-603.21 162.45,-603.21"/>
</g>
<!-- r_g1 -->
<g id="node3" class="node">
<title>r_g1</title>
<path fill="white" stroke="#fb923c" stroke-width="1.2" d="M148.12,-517.28C148.12,-517.28 47.55,-502.72 47.55,-502.72 41.62,-501.86 41.62,-500.14 47.55,-499.28 47.55,-499.28 148.12,-484.72 148.12,-484.72 154.06,-483.86 165.94,-483.86 171.88,-484.72 171.88,-484.72 272.45,-499.28 272.45,-499.28 278.38,-500.14 278.38,-501.86 272.45,-502.72 272.45,-502.72 171.88,-517.28 171.88,-517.28 165.94,-518.14 154.06,-518.14 148.12,-517.28"/>
<text text-anchor="start" x="95" y="-499.2" font-family="Helvetica,sans-Serif" font-weight="bold" font-size="11.00">balance ≥ cost/hour?</text>
</g>
<!-- r_load&#45;&gt;r_g1 -->
<g id="edge2" class="edge">
<title>r_load&#45;&gt;r_g1</title>
<path fill="none" stroke="#78716c" stroke-width="1.1" d="M160,-559.98C160,-550.08 160,-537.43 160,-526.47"/>
<polygon fill="#78716c" stroke="#78716c" stroke-width="1.1" points="162.45,-526.21 160,-519.21 157.55,-526.21 162.45,-526.21"/>
</g>
<!-- r_g2 -->
<g id="node4" class="node">
<title>r_g2</title>
<path fill="white" stroke="#fb923c" stroke-width="1.2" d="M105.23,-429.17C105.23,-429.17 37.78,-415.83 37.78,-415.83 31.9,-414.66 31.9,-412.34 37.78,-411.17 37.78,-411.17 105.23,-397.83 105.23,-397.83 111.11,-396.66 122.89,-396.66 128.77,-397.83 128.77,-397.83 196.22,-411.17 196.22,-411.17 202.1,-412.34 202.1,-414.66 196.22,-415.83 196.22,-415.83 128.77,-429.17 128.77,-429.17 122.89,-430.34 111.11,-430.34 105.23,-429.17"/>
<text text-anchor="start" x="71.5" y="-411.7" font-family="Helvetica,sans-Serif" font-weight="bold" font-size="11.00">slot available?</text>
</g>
<!-- r_g1&#45;&gt;r_g2 -->
<g id="edge4" class="edge">
<title>r_g1&#45;&gt;r_g2</title>
<path fill="none" stroke="#78716c" stroke-width="1.1" d="M151.91,-483.92C145.2,-470.58 135.59,-451.47 128.15,-436.68"/>
<polygon fill="#78716c" stroke="#78716c" stroke-width="1.1" points="130.24,-435.37 124.91,-430.22 125.86,-437.58 130.24,-435.37"/>
<text text-anchor="middle" x="149" y="-455.8" font-family="Helvetica,sans-Serif" font-size="9.00">yes</text>
</g>
<!-- r_fail1 -->
<g id="node7" class="node">
<title>r_fail1</title>
<path fill="#fee2e2" stroke="#fca5a5" stroke-width="1.2" d="M410.5,-431.5C410.5,-431.5 251.5,-431.5 251.5,-431.5 245.5,-431.5 239.5,-425.5 239.5,-419.5 239.5,-419.5 239.5,-407.5 239.5,-407.5 239.5,-401.5 245.5,-395.5 251.5,-395.5 251.5,-395.5 410.5,-395.5 410.5,-395.5 416.5,-395.5 422.5,-401.5 422.5,-407.5 422.5,-407.5 422.5,-419.5 422.5,-419.5 422.5,-425.5 416.5,-431.5 410.5,-431.5"/>
<text text-anchor="start" x="247.5" y="-411.7" font-family="Helvetica,sans-Serif" font-weight="bold" font-size="11.00">Notify: Insufficient Balance</text>
</g>
<!-- r_g1&#45;&gt;r_fail1 -->
<g id="edge3" class="edge">
<title>r_g1&#45;&gt;r_fail1</title>
<path fill="none" stroke="#78716c" stroke-width="1.1" stroke-dasharray="5,2" d="M186.72,-486.64C214.43,-472.78 258.11,-450.95 290.16,-434.92"/>
<polygon fill="#78716c" stroke="#78716c" stroke-width="1.1" points="291.64,-436.92 296.81,-431.6 289.45,-432.54 291.64,-436.92"/>
<text text-anchor="middle" x="256" y="-455.8" font-family="Helvetica,sans-Serif" font-size="9.00">no</text>
</g>
<!-- r_commit -->
<g id="node5" class="node">
<title>r_commit</title>
<path fill="#fef3c7" stroke="#f59e0b" stroke-width="1.2" d="M198.5,-344C198.5,-344 37.5,-344 37.5,-344 31.5,-344 25.5,-338 25.5,-332 25.5,-332 25.5,-307 25.5,-307 25.5,-301 31.5,-295 37.5,-295 37.5,-295 198.5,-295 198.5,-295 204.5,-295 210.5,-301 210.5,-307 210.5,-307 210.5,-332 210.5,-332 210.5,-338 204.5,-344 198.5,-344"/>
<text text-anchor="start" x="94" y="-332.2" font-family="Helvetica,sans-Serif" font-weight="bold" font-size="11.00">Commit</text>
<text text-anchor="start" x="60.5" y="-322" font-family="Helvetica,sans-Serif" font-size="10.00" fill="#374151">slot.status = &#39;reserved&#39;</text>
<text text-anchor="start" x="33.5" y="-312" font-family="Helvetica,sans-Serif" font-size="10.00" fill="#374151">create ParkingReservation (active)</text>
<text text-anchor="start" x="77.5" y="-302" font-family="Helvetica,sans-Serif" font-size="10.00" fill="#374151">push to Firebase</text>
</g>
<!-- r_g2&#45;&gt;r_commit -->
<g id="edge6" class="edge">
<title>r_g2&#45;&gt;r_commit</title>
<path fill="none" stroke="#78716c" stroke-width="1.1" d="M117.19,-395.2C117.32,-382.96 117.5,-366.22 117.66,-351.69"/>
<polygon fill="#78716c" stroke="#78716c" stroke-width="1.1" points="120.11,-351.35 117.74,-344.32 115.22,-351.3 120.11,-351.35"/>
<text text-anchor="middle" x="125" y="-366.8" font-family="Helvetica,sans-Serif" font-size="9.00">yes</text>
</g>
<!-- r_fail2 -->
<g id="node8" class="node">
<title>r_fail2</title>
<path fill="#fee2e2" stroke="#fca5a5" stroke-width="1.2" d="M401.5,-337.5C401.5,-337.5 254.5,-337.5 254.5,-337.5 248.5,-337.5 242.5,-331.5 242.5,-325.5 242.5,-325.5 242.5,-313.5 242.5,-313.5 242.5,-307.5 248.5,-301.5 254.5,-301.5 254.5,-301.5 401.5,-301.5 401.5,-301.5 407.5,-301.5 413.5,-307.5 413.5,-313.5 413.5,-313.5 413.5,-325.5 413.5,-325.5 413.5,-331.5 407.5,-337.5 401.5,-337.5"/>
<text text-anchor="start" x="250.5" y="-317.7" font-family="Helvetica,sans-Serif" font-weight="bold" font-size="11.00">Notify: Slot not available</text>
</g>
<!-- r_g2&#45;&gt;r_fail2 -->
<g id="edge5" class="edge">
<title>r_g2&#45;&gt;r_fail2</title>
<path fill="none" stroke="#78716c" stroke-width="1.1" stroke-dasharray="5,2" d="M144.15,-400.66C179.02,-385.46 240.04,-358.85 282.16,-340.49"/>
<polygon fill="#78716c" stroke="#78716c" stroke-width="1.1" points="283.31,-342.66 288.75,-337.61 281.35,-338.17 283.31,-342.66"/>
<text text-anchor="middle" x="228" y="-366.8" font-family="Helvetica,sans-Serif" font-size="9.00">no</text>
</g>
<!-- r_ok -->
<g id="node6" class="node">
<title>r_ok</title>
<path fill="#dcfce7" stroke="#86efac" stroke-width="1.2" d="M166,-233.5C166,-233.5 70,-233.5 70,-233.5 64,-233.5 58,-227.5 58,-221.5 58,-221.5 58,-209.5 58,-209.5 58,-203.5 64,-197.5 70,-197.5 70,-197.5 166,-197.5 166,-197.5 172,-197.5 178,-203.5 178,-209.5 178,-209.5 178,-221.5 178,-221.5 178,-227.5 172,-233.5 166,-233.5"/>
<text text-anchor="start" x="66" y="-213.7" font-family="Helvetica,sans-Serif" font-weight="bold" font-size="11.00">Notify: Reserved</text>
</g>
<!-- r_commit&#45;&gt;r_ok -->
<g id="edge7" class="edge">
<title>r_commit&#45;&gt;r_ok</title>
<path fill="none" stroke="#78716c" stroke-width="1.1" d="M118,-294.84C118,-278.61 118,-257.14 118,-240.78"/>
<polygon fill="#78716c" stroke="#78716c" stroke-width="1.1" points="120.45,-240.66 118,-233.66 115.55,-240.66 120.45,-240.66"/>
</g>
<!-- r_refresh -->
<g id="node9" class="node">
<title>r_refresh</title>
<path fill="white" stroke="#fcd34d" stroke-width="1.2" stroke-dasharray="5,2" d="M157.5,-145C157.5,-145 78.5,-145 78.5,-145 72.5,-145 66.5,-139 66.5,-133 66.5,-133 66.5,-121 66.5,-121 66.5,-115 72.5,-109 78.5,-109 78.5,-109 157.5,-109 157.5,-109 163.5,-109 169.5,-115 169.5,-121 169.5,-121 169.5,-133 169.5,-133 169.5,-139 163.5,-145 157.5,-145"/>
<text text-anchor="start" x="74.5" y="-125.2" font-family="Helvetica,sans-Serif" font-weight="bold" font-size="11.00">refreshSlots()</text>
</g>
<!-- r_ok&#45;&gt;r_refresh -->
<g id="edge8" class="edge">
<title>r_ok&#45;&gt;r_refresh</title>
<path fill="none" stroke="#9ca3af" stroke-width="1.1" stroke-dasharray="5,2" d="M118,-197.41C118,-184.5 118,-166.6 118,-152.21"/>
<polygon fill="#9ca3af" stroke="#9ca3af" stroke-width="1.1" points="120.45,-152.05 118,-145.05 115.55,-152.05 120.45,-152.05"/>
</g>
<!-- x_start -->
<g id="node10" class="node">
<title>x_start</title>
<path fill="#1e293b" stroke="#1e293b" stroke-width="1.2" d="M868.5,-673C868.5,-673 725.5,-673 725.5,-673 719.5,-673 713.5,-667 713.5,-661 713.5,-661 713.5,-649 713.5,-649 713.5,-643 719.5,-637 725.5,-637 725.5,-637 868.5,-637 868.5,-637 874.5,-637 880.5,-643 880.5,-649 880.5,-649 880.5,-661 880.5,-661 880.5,-667 874.5,-673 868.5,-673"/>
<text text-anchor="start" x="721.5" y="-657.2" font-family="Helvetica,sans-Serif" font-weight="bold" font-size="11.00" fill="white">User clicks &#39;End Parking&#39;</text>
<text text-anchor="start" x="752.5" y="-647.8" font-family="Helvetica,sans-Serif" font-size="9.00" fill="#78716c">confirmation modal</text>
</g>
<!-- x_load -->
<g id="node11" class="node">
<title>x_load</title>
<path fill="white" stroke="#fca5a5" stroke-width="1.2" d="M859,-596C859,-596 735,-596 735,-596 729,-596 723,-590 723,-584 723,-584 723,-572 723,-572 723,-566 729,-560 735,-560 735,-560 859,-560 859,-560 865,-560 871,-566 871,-572 871,-572 871,-584 871,-584 871,-590 865,-596 859,-596"/>
<text text-anchor="start" x="783.5" y="-580.2" font-family="Helvetica,sans-Serif" font-weight="bold" font-size="11.00">load</text>
<text text-anchor="start" x="731" y="-570.8" font-family="Helvetica,sans-Serif" font-size="9.00" fill="#78716c">slot + activeReservation.user</text>
</g>
<!-- x_start&#45;&gt;x_load -->
<g id="edge9" class="edge">
<title>x_start&#45;&gt;x_load</title>
<path fill="none" stroke="#78716c" stroke-width="1.1" d="M797,-636.98C797,-627.08 797,-614.43 797,-603.47"/>
<polygon fill="#78716c" stroke="#78716c" stroke-width="1.1" points="799.45,-603.21 797,-596.21 794.55,-603.21 799.45,-603.21"/>
</g>
<!-- x_g1 -->
<g id="node12" class="node">
<title>x_g1</title>
<path fill="white" stroke="#f87171" stroke-width="1.2" d="M785.1,-517.44C785.1,-517.44 671.36,-502.56 671.36,-502.56 665.41,-501.78 665.41,-500.22 671.36,-499.44 671.36,-499.44 785.1,-484.56 785.1,-484.56 791.05,-483.78 802.95,-483.78 808.9,-484.56 808.9,-484.56 922.64,-499.44 922.64,-499.44 928.59,-500.22 928.59,-501.78 922.64,-502.56 922.64,-502.56 808.9,-517.44 808.9,-517.44 802.95,-518.22 791.05,-518.22 785.1,-517.44"/>
<text text-anchor="start" x="724" y="-499.2" font-family="Helvetica,sans-Serif" font-weight="bold" font-size="11.00">has active reservation?</text>
</g>
<!-- x_load&#45;&gt;x_g1 -->
<g id="edge10" class="edge">
<title>x_load&#45;&gt;x_g1</title>
<path fill="none" stroke="#78716c" stroke-width="1.1" d="M797,-559.98C797,-550.08 797,-537.43 797,-526.47"/>
<polygon fill="#78716c" stroke="#78716c" stroke-width="1.1" points="799.45,-526.21 797,-519.21 794.55,-526.21 799.45,-526.21"/>
</g>
<!-- x_calc -->
<g id="node13" class="node">
<title>x_calc</title>
<path fill="white" stroke="#f87171" stroke-width="1.2" d="M787.5,-433C787.5,-433 626.5,-433 626.5,-433 620.5,-433 614.5,-427 614.5,-421 614.5,-421 614.5,-406 614.5,-406 614.5,-400 620.5,-394 626.5,-394 626.5,-394 787.5,-394 787.5,-394 793.5,-394 799.5,-400 799.5,-406 799.5,-406 799.5,-421 799.5,-421 799.5,-427 793.5,-433 787.5,-433"/>
<text text-anchor="start" x="665" y="-421.2" font-family="Helvetica,sans-Serif" font-weight="bold" font-size="11.00">compute cost</text>
<text text-anchor="start" x="622.5" y="-411" font-family="Helvetica,sans-Serif" font-size="10.00" fill="#374151">hours = ceil(max(minutes, 1) / 60)</text>
<text text-anchor="start" x="657.5" y="-401" font-family="Helvetica,sans-Serif" font-size="10.00" fill="#374151">cost &#160;= hours × rate</text>
</g>
<!-- x_g1&#45;&gt;x_calc -->
<g id="edge12" class="edge">
<title>x_g1&#45;&gt;x_calc</title>
<path fill="none" stroke="#78716c" stroke-width="1.1" d="M780.91,-484.71C767.28,-471.77 747.52,-452.99 731.86,-438.12"/>
<polygon fill="#78716c" stroke="#78716c" stroke-width="1.1" points="733.48,-436.28 726.72,-433.23 730.11,-439.83 733.48,-436.28"/>
<text text-anchor="middle" x="765" y="-455.8" font-family="Helvetica,sans-Serif" font-size="9.00">yes</text>
</g>
<!-- x_fail1 -->
<g id="node17" class="node">
<title>x_fail1</title>
<ellipse fill="#f5f5f4" stroke="#a8a29e" stroke-width="1.2" cx="887" cy="-413.5" rx="55.85" ry="18"/>
<text text-anchor="start" x="848.5" y="-411.7" font-family="Helvetica,sans-Serif" font-weight="bold" font-size="11.00">silent return</text>
</g>
<!-- x_g1&#45;&gt;x_fail1 -->
<g id="edge11" class="edge">
<title>x_g1&#45;&gt;x_fail1</title>
<path fill="none" stroke="#78716c" stroke-width="1.1" stroke-dasharray="5,2" d="M813.09,-484.71C827.44,-471.08 848.61,-450.97 864.61,-435.77"/>
<polygon fill="#78716c" stroke="#78716c" stroke-width="1.1" points="866.44,-437.42 869.82,-430.82 863.06,-433.86 866.44,-437.42"/>
<text text-anchor="middle" x="850" y="-455.8" font-family="Helvetica,sans-Serif" font-size="9.00">no</text>
</g>
<!-- x_g2 -->
<g id="node14" class="node">
<title>x_g2</title>
<path fill="white" stroke="#f87171" stroke-width="1.2" d="M695.2,-335.31C695.2,-335.31 621.9,-321.69 621.9,-321.69 616,-320.6 616,-318.4 621.9,-317.31 621.9,-317.31 695.2,-303.69 695.2,-303.69 701.1,-302.6 712.9,-302.6 718.8,-303.69 718.8,-303.69 792.1,-317.31 792.1,-317.31 798,-318.4 798,-320.6 792.1,-321.69 792.1,-321.69 718.8,-335.31 718.8,-335.31 712.9,-336.4 701.1,-336.4 695.2,-335.31"/>
<text text-anchor="start" x="658" y="-317.7" font-family="Helvetica,sans-Serif" font-weight="bold" font-size="11.00">balance ≥ cost?</text>
</g>
<!-- x_calc&#45;&gt;x_g2 -->
<g id="edge13" class="edge">
<title>x_calc&#45;&gt;x_g2</title>
<path fill="none" stroke="#78716c" stroke-width="1.1" d="M707,-393.88C707,-379.71 707,-360.1 707,-344.71"/>
<polygon fill="#78716c" stroke="#78716c" stroke-width="1.1" points="709.45,-344.54 707,-337.54 704.55,-344.54 709.45,-344.54"/>
</g>
<!-- x_commit -->
<g id="node15" class="node">
<title>x_commit</title>
<path fill="#fef3c7" stroke="#f59e0b" stroke-width="1.2" d="M735,-245C735,-245 479,-245 479,-245 473,-245 467,-239 467,-233 467,-233 467,-198 467,-198 467,-192 473,-186 479,-186 479,-186 735,-186 735,-186 741,-186 747,-192 747,-198 747,-198 747,-233 747,-233 747,-239 741,-245 735,-245"/>
<text text-anchor="start" x="583" y="-233.2" font-family="Helvetica,sans-Serif" font-weight="bold" font-size="11.00">Commit</text>
<text text-anchor="start" x="475" y="-223" font-family="Helvetica,sans-Serif" font-size="10.00" fill="#374151">reservation: status=&#39;completed&#39;, end_time, total_cost</text>
<text text-anchor="start" x="557" y="-213" font-family="Helvetica,sans-Serif" font-size="10.00" fill="#374151">user.balance &#45;= cost</text>
<text text-anchor="start" x="548.5" y="-203" font-family="Helvetica,sans-Serif" font-size="10.00" fill="#374151">slot.status = &#39;available&#39;</text>
<text text-anchor="start" x="566.5" y="-193" font-family="Helvetica,sans-Serif" font-size="10.00" fill="#374151">push to Firebase</text>
</g>
<!-- x_g2&#45;&gt;x_commit -->
<g id="edge15" class="edge">
<title>x_g2&#45;&gt;x_commit</title>
<path fill="none" stroke="#78716c" stroke-width="1.1" d="M692.67,-303.89C679.05,-289.99 658.05,-268.57 640.25,-250.42"/>
<polygon fill="#78716c" stroke="#78716c" stroke-width="1.1" points="641.98,-248.68 635.33,-245.39 638.48,-252.11 641.98,-248.68"/>
<text text-anchor="middle" x="670" y="-267.8" font-family="Helvetica,sans-Serif" font-size="9.00">yes</text>
</g>
<!-- x_fail2 -->
<g id="node18" class="node">
<title>x_fail2</title>
<path fill="#fee2e2" stroke="#fca5a5" stroke-width="1.2" d="M975,-233.5C975,-233.5 791,-233.5 791,-233.5 785,-233.5 779,-227.5 779,-221.5 779,-221.5 779,-209.5 779,-209.5 779,-203.5 785,-197.5 791,-197.5 791,-197.5 975,-197.5 975,-197.5 981,-197.5 987,-203.5 987,-209.5 987,-209.5 987,-221.5 987,-221.5 987,-227.5 981,-233.5 975,-233.5"/>
<text text-anchor="start" x="787" y="-213.7" font-family="Helvetica,sans-Serif" font-weight="bold" font-size="11.00">Notify: Insufficient at Checkout</text>
</g>
<!-- x_g2&#45;&gt;x_fail2 -->
<g id="edge14" class="edge">
<title>x_g2&#45;&gt;x_fail2</title>
<path fill="none" stroke="#78716c" stroke-width="1.1" stroke-dasharray="5,2" d="M729.29,-305.58C758.98,-288.37 811.87,-257.72 847.19,-237.25"/>
<polygon fill="#78716c" stroke="#78716c" stroke-width="1.1" points="848.74,-239.19 853.57,-233.56 846.29,-234.95 848.74,-239.19"/>
<text text-anchor="middle" x="801" y="-267.8" font-family="Helvetica,sans-Serif" font-size="9.00">no</text>
</g>
<!-- x_ok -->
<g id="node16" class="node">
<title>x_ok</title>
<path fill="#dcfce7" stroke="#86efac" stroke-width="1.2" d="M681,-145C681,-145 533,-145 533,-145 527,-145 521,-139 521,-133 521,-133 521,-121 521,-121 521,-115 527,-109 533,-109 533,-109 681,-109 681,-109 687,-109 693,-115 693,-121 693,-121 693,-133 693,-133 693,-139 687,-145 681,-145"/>
<text text-anchor="start" x="529" y="-125.2" font-family="Helvetica,sans-Serif" font-weight="bold" font-size="11.00">Notify: Parking Ended ($)</text>
</g>
<!-- x_commit&#45;&gt;x_ok -->
<g id="edge16" class="edge">
<title>x_commit&#45;&gt;x_ok</title>
<path fill="none" stroke="#78716c" stroke-width="1.1" d="M607,-185.7C607,-174.86 607,-162.66 607,-152.27"/>
<polygon fill="#78716c" stroke="#78716c" stroke-width="1.1" points="609.45,-152.08 607,-145.08 604.55,-152.08 609.45,-152.08"/>
</g>
<!-- x_refresh -->
<g id="node19" class="node">
<title>x_refresh</title>
<path fill="white" stroke="#fcd34d" stroke-width="1.2" stroke-dasharray="5,2" d="M646.5,-62C646.5,-62 567.5,-62 567.5,-62 561.5,-62 555.5,-56 555.5,-50 555.5,-50 555.5,-38 555.5,-38 555.5,-32 561.5,-26 567.5,-26 567.5,-26 646.5,-26 646.5,-26 652.5,-26 658.5,-32 658.5,-38 658.5,-38 658.5,-50 658.5,-50 658.5,-56 652.5,-62 646.5,-62"/>
<text text-anchor="start" x="563.5" y="-42.2" font-family="Helvetica,sans-Serif" font-weight="bold" font-size="11.00">refreshSlots()</text>
</g>
<!-- x_ok&#45;&gt;x_refresh -->
<g id="edge17" class="edge">
<title>x_ok&#45;&gt;x_refresh</title>
<path fill="none" stroke="#9ca3af" stroke-width="1.1" stroke-dasharray="5,2" d="M607,-108.82C607,-97.33 607,-82.04 607,-69.31"/>
<polygon fill="#9ca3af" stroke="#9ca3af" stroke-width="1.1" points="609.45,-69.15 607,-62.15 604.55,-69.15 609.45,-69.15"/>
</g>
</g>
</svg>
